<svg xmlns="http://www.w3.org/2000/svg" viewBox="0 0 473.1 234.62"><defs><style>.cls-1{fill:none;}.cls-2{fill:#72eef1;}.cls-3{fill:#1e1a17;}.cls-4{fill:#fff;}.cls-5{fill:#fff835;}.cls-6{fill:#d266e1;}</style></defs><title>Asset 6</title><g id="Layer_2" data-name="Layer 2"><g id="Layer_1-2" data-name="Layer 1"><rect y="194.02" width="473.1" height="40.61"/><path class="cls-1" d="M333.75,71.4a2.84,2.84,0,0,0,.29-.63c.48-1.36-.45-1.44-1.57-2s-1.69-.77-.82-2.29,3.8-4,3.89-5.2-2.94-3.21-2.83-3.8a6.82,6.82,0,0,0,0-1.45s-13.44-1.5-18,12.19-3.12,21.58-.82,26c0,0,5.77,5.64,9.73,7,0,0,5.26-13.21,6.22-15s1.87-2.11,1.16-4.79-1.93-6.33-1.15-7.33.54-.65,1.79-1.17c.36-.15.68-.28,1-.42h0c.06-.23.29-.41.8-.54a2.07,2.07,0,0,0,.37-.45Z"/><path class="cls-2" d="M449.16,36.19c-.27.16-1.45-.31-2.21-.64a3.07,3.07,0,0,0-.61.7c-.89,1.45,1.82,3.52,2.23,2.47s1.72-.65,1.72-.65c3,.81,1.9-.33,3.25-.92,1.13-.49,3.41,1.45,3.64,2.64h0l.53-.39c.53.77.84,1.29.84,1.29a28.69,28.69,0,0,0-5.21-6.33,2.77,2.77,0,0,1-3.22.83,4.15,4.15,0,0,0,.43.09A3,3,0,0,1,449.16,36.19Z"/><path class="cls-2" d="M431.43,15.39l-.06-.11h0a3.42,3.42,0,0,1-.5.76c-1.31,2.58,1.66,2.3,1.66,2.3.59-2.88,3.12-1.4,3.12-1.4.36-.62,1.63-1,3.63.19s1.12,4.38,1.12,4.38,2.47-.16,3.34,1.45a2.81,2.81,0,0,1,.35,1.56h0a1.48,1.48,0,0,1,.93-1,24,24,0,0,0-2.87-3.69s-2.3-4-4.11-5.19c0,0-3.17-1.13-4.94,0l-.16-.22A4.77,4.77,0,0,1,431.43,15.39Z"/><path class="cls-2" d="M443,27a10,10,0,0,1-2.65,2.53c-.75.41-2.57-.14-2,1.13s1.36.86,4.65-.5a6.21,6.21,0,0,1,6,.94s-1-2.37-2.51-2.73l-1.9-.57.06-.06a2.76,2.76,0,0,1-1.23.23C442.67,27.78,442.81,27.29,443,27Z"/><path class="cls-2" d="M344.88,194l.54.26.39-.1Z"/><path class="cls-2" d="M350.78,196.64c-.28-.12-.53-.24-.81-.35l-2.38-1c1,.46,2.05.92,3.19,1.4a72.78,72.78,0,0,0,15.32,3.65A72.78,72.78,0,0,1,350.78,196.64Z"/><path class="cls-2" d="M468.47,122.67a5.05,5.05,0,0,0-5.26.37,5,5,0,0,1,5.25-.37l4.46-12.17Z"/><path class="cls-2" d="M434.86,150.39a18.61,18.61,0,0,0-3.29,5.25,18.61,18.61,0,0,1,3.29-5.25,1.36,1.36,0,0,1,1.32-.38A1.36,1.36,0,0,0,434.86,150.39Z"/><path class="cls-2" d="M363.6,25.15a2.39,2.39,0,0,0-1.45,1.27A2.42,2.42,0,0,1,363.6,25.15Z"/><path class="cls-2" d="M414.07,6.5a3.68,3.68,0,0,0,0,1.54c2.72.55,2.34,1.51,2.34,1.51l-.9,2.71,1.46.52a7,7,0,0,0,.81-2.09c0-.71,1-1.42,1-1.42a1.57,1.57,0,0,1,1-1.24l3.69,1.2s-.24-1.6,2.85-1.12,2.48,2.54,2.48,2.54a5.26,5.26,0,0,1,2.57,2.11h0l.26-.18a22.77,22.77,0,0,0-3.71-4.14s.76-1.93-3.57-2.78a11,11,0,0,0-3.11,1c-1.2.72-1.8-.9-3.57.19a1,1,0,0,1-1.25,0A8,8,0,0,1,414.07,6.5Z"/><path class="cls-2" d="M323.07,108.89a6.81,6.81,0,0,0-.05,2.81,7.11,7.11,0,0,1,0,4.18c-.57,1.76-1.55,1.54-1.67,3.14a23.12,23.12,0,0,1-.45,4.18c-.4,1.8-1.19,4.32-.44,6a30.84,30.84,0,0,0,.16,4.55c.26,1.31.54,5.71,1.2,6.53s1.47,9.26,1.71,10.17,1.36,6.21.91,9.42a30.06,30.06,0,0,0,.73,4.94,13.7,13.7,0,0,1,1,2.34v.13c0,.89.27,5.35,1.77,7.27a31.9,31.9,0,0,0,2,3.82,21.72,21.72,0,0,1-2.95-10.8v0c0-.1,0-.18,0-.25v-.07a.57.57,0,0,0,0-.12v-.06a1.18,1.18,0,0,1-1.08-.59c-.43-.67-.42-3.73-.42-3.73.62-3-.06-10.9-.5-13s-1-5.07-1.77-8.81-.78-4.28-1.48-7.37.53-10.47.53-10.47c-.63-2.7.28-2.43,1.83-4.58s.36-4.21-.2-6.27,1.73-3.35,1.73-3.35a52.51,52.51,0,0,1-8.64-4.62l0,0-.77.78c2.13,1.1,4.14,1.9,5.79,2.59h0S323.18,107.65,323.07,108.89Z"/><path class="cls-2" d="M368.87,17.53c-.81,2.48.94,3.3,1.41,4a2.79,2.79,0,0,1,.53-3.26c2-2.38,5.53-.42,5.53-.42,1.71-.92,2.33.62,2.32,1a4.48,4.48,0,0,0,.28,1.17c1.52-.27,2.86-1.76,4.24-2.15s.69-1.41,1.43-3.26,1.33-.24,2.63-.38.67-1.33-.27-1.8a1,1,0,0,1,.46-1.84c1,.11.5.15.38-1s.41-1,.87-2,4.13-.57,4.13-.57c3.1-1.32,4.27.47,4.27.47a2.06,2.06,0,0,0,1.41,1.6c1.3.48,1.07-.85,1.07-.85,2.26-.94,4,.39,3.71,1.11s-1.43,2.36.78,2.22,2.72-3.69,3.18-4.9a22.5,22.5,0,0,1,1.16-3c.34-.53,1-.52,2.72-1.26a2.15,2.15,0,0,1,2.6.33.91.91,0,0,0,.13.08,2.43,2.43,0,0,1,.49-.61,4.27,4.27,0,0,1,.09.51A2.9,2.9,0,0,0,411.83,0c-1.69-.13-2.89.77-3.92,1.3h0a5.5,5.5,0,0,1-.55.52c-.91.74-.23.37-.82,1.25S404.71,8.51,404,9s-1.14-2.17-1.14-2.17-3.1-2.28-5.2.24c0,0-1.71-4.21-5.82-1.93,0,0-2.24-1.21-5,.84a2.6,2.6,0,0,0-.57,0,9.14,9.14,0,0,0,.2,1.42c.13.29.3,1.29,0,1.24s-.85-.22-1,.64-.12,1,.45,1.29.15,1.68-.08,1.58a2.5,2.5,0,0,1-2.79-.75,2.65,2.65,0,0,0,.58,1.13,5.22,5.22,0,0,0-1,.33,4.08,4.08,0,0,1-2.29,3.91,1.34,1.34,0,0,1-.84,0h0a1.32,1.32,0,0,1-1.56.73s-2.79-2.72-7.8-1.62l.52-.09C370.33,16.59,369.53,15.52,368.87,17.53Z"/><path class="cls-2" d="M305.27,51.78c-.14,1-1,2.27-.6,2.87s1.25.19,1.24,1.06l0,.25c.53-1.86,4.36-11.82,4.36-11.82,13.81.46,35.75,9.83,35.75,9.83l-.07-.65-4.55-3.44s-.69-1.29.7-1.14,3.78.6,3.78.6.91-.63.47-.94a6.19,6.19,0,0,1-1.08-3c0-.81-.33-3.7,0-4.69s2.17-1.24,2.17-1.24l1.72.88.54-1.82c.3-1,2.25-1.48,2.16-.88a1.25,1.25,0,0,0,1.35,1.49c1.18,0,.23-.48.7-2.32s2.52-2.12,2.67-1.71.43.66,1.46,1.15,2.18-1.59,1.28-1.87-1,.25-.71-.66a20.66,20.66,0,0,0,.42-3.2l-.91-.55c.39-1.59,4.75-.82,4.75-.82.74-.68,1.8.27,3.22.06s.14-1.66.14-1.66c.38-1.87,2.68-1.45,2.68-1.45s.43.67,1.78-.54.59-2.26-.42-4l.18.31c.26.52,0,.88-1.71,1.89a1.29,1.29,0,0,1-1.53-.14,3.78,3.78,0,0,1-.39.72c-.57.83-1.3.77-2.06.74h.35c.19.36,1,1.95-.07,1.95a6.82,6.82,0,0,1-2.9-.6l-.21.39a16.19,16.19,0,0,0-5.41,1,2.28,2.28,0,0,1,.85,2.16c-.45,1.75-.71,1.75-.39,2.5s.82,1.4-.05,1.25a4.32,4.32,0,0,1-1.82-.7h0v.06l-2.26,1.13c.29,1.29.65,3.41-.37,2.87a3.83,3.83,0,0,1-1.85-1.8l.08,0c-.79.38-1.62.77-2.47,1.15-.06.64-.19,1.47-.4,1.51a1.68,1.68,0,0,1-1.28-.76c-1.06.46-2.07.87-2.95,1.19h0a9.7,9.7,0,0,1,.57,3.19,3.41,3.41,0,0,0-.05,2.09c.22.72.73,1.46.62,1.93s.53,1.5.07,1.48a22.91,22.91,0,0,1-2.92-.8s-2.25,1.07-3.66,1.8l1.21-.61c.82.44,1.19.56,1.53,1.14a2.17,2.17,0,0,1,.19,1.44l-4.05-1.34s-16.08-5.54-26-6.27a1.86,1.86,0,0,0-2.46,1S305.42,50.81,305.27,51.78Z"/><path class="cls-2" d="M459.18,99.78a14.67,14.67,0,0,1-1.37.85,78.89,78.89,0,0,1,12.78,8.31h0l.2-.31s-.6-2.8-10.12-7.36l-1.49-1.46Z"/><path class="cls-2" d="M464.64,97.31c-.1,1.07-2.66,3-3.62,3.69C462,100.31,464.54,98.38,464.64,97.31Z"/><path class="cls-2" d="M461.66,70.1c-2.34-.61-3.08.06-2.77,1.42s2.18.83,2.18.83c2.45-1,3,.62,3.25,1.79s-1,3.93-1.72,3.62l.91,1.07a3.32,3.32,0,0,1,2.75-1c.65-1.52,1.19-1.42,1.54-1l.29-.2-.24-.26c-.2-.24-1-2.45-2.1-2s-.91,1.53-1.14.47A16.17,16.17,0,0,0,463.49,72a6.24,6.24,0,0,1-.72-1.56h0Z"/><path class="cls-2" d="M459.23,59.29c-.46,1.84,1,2.1,1,2.1a4,4,0,0,1,1.67,1.54h0l.36-.21.06.05c-1.5-1.06-1.58-2-1.33-2.83-.44-.26-1.11-.68-1.63-1C459.31,59,459.26,59.17,459.23,59.29Z"/><path class="cls-2" d="M459.41,58.74c.4-1.18,1.09-2.37,1.39-3.37C460.5,56.37,459.81,57.56,459.41,58.74Z"/><path class="cls-2" d="M457.44,49.93c.16.9,2.06,2.27,3,3.42v0l.7-.36c-.89-1.25-2-2.21-2.51-3.37-.34-.8-.95-1.8-1.45-2.82l-1.53-.12A25.73,25.73,0,0,1,457.44,49.93Z"/><path class="cls-2" d="M460.59,90.43h0a15.71,15.71,0,0,1-2.06,1.78l3,.73.76.2c-.22-.34-.44-.67-.64-.94l-1.12-1.57Z"/><path class="cls-2" d="M352.47,196.11h0Z"/><path class="cls-2" d="M306.08,56.26l-.18-.12Z"/><path class="cls-2" d="M443.54,26.16h0a6.17,6.17,0,0,1-.39.6A3.28,3.28,0,0,0,443.54,26.16Z"/><path class="cls-2" d="M333.73,183.64l-.07-.09c-.34-.38-.65-.77-1-1.15q.63.82,1.35,1.68c-.12-.16-.21-.27-.27-.36A.25.25,0,0,1,333.73,183.64Z"/><polygon class="cls-2" points="332.69 182.39 332.7 182.4 332.69 182.39 332.69 182.39"/><path class="cls-2" d="M306.25,91c-3.36-11.63,2.21-31.38,2.21-31.38.28-1.45-1.76-2.93-2.38-3.34.35.53,1.07.9,1.07,1.34,0,0-.1,1-.89,4.31s-1.45,6.64-1.45,6.64S301.26,85.72,306,90.62a12.62,12.62,0,0,0,2.33,5.11A13.24,13.24,0,0,1,306.25,91Z"/><path class="cls-2" d="M346.49,194h0a55.41,55.41,0,0,1-6.14-4h0c-.4-.31-.79-.6-1.16-.9l0,0-1-.83-.07-.06-.76-.67a38.54,38.54,0,0,0,9.18,6.5l-.64.15,1.43.26-.75-.42Z"/><path class="cls-2" d="M445,23.52c.65,1.1.62,1.57.56,1.74C445.65,25.1,445.68,24.63,445,23.52Z"/><polygon class="cls-3" points="332.53 72.48 332.53 72.48 332.53 72.48 332.53 72.48"/><path d="M448.9,103.67a33.45,33.45,0,0,0-7.84-5.34C440.29,98,438.4,97.08,436,96a3.13,3.13,0,0,1-.64,2.85s-1.09,4.38-1.53,4.62a2.19,2.19,0,0,1-1.62.18c-.55-.16-3.32-1.89-3.75-1.2s-.32,2.07-1.1.94-.9-1.24-.95-2.07-.26-1.35-1.61-1.6-2-.08-2.17-1-4.87-4.44-7.38-5.27S405,90,398.52,94.66l1.28.68s6.38-3.83,11.91-1.35a6.84,6.84,0,0,0-3.25,4.1c-.79,2.9.54,3.44,2.72,4.62s5.32,1.44,6.21-1a11.75,11.75,0,0,0,.55-5.06c0-.81,3.73,2.24,2.57,7.12a1.74,1.74,0,0,0,1.13,1.46c1,.3.23,1-.38,1s-.46,1.28.95,1.56l.11,2.12a2.13,2.13,0,0,0,2.32-.5c.92-1.07-.52-.53-.22-1s-.11-1.61,1.07-1.33.91,1,2,.37,1-1.2,1-1.2l3.39.64-.39,1.3,1.34.26s.72-1.88,3.22-.53c0,0,1.66.94,0,2.6,0,0-.95.69-.74,1a4.5,4.5,0,0,1-.05,2.15,17.83,17.83,0,0,1-1.07,2.59l1,.67a4.92,4.92,0,0,1-1.3,3.35s-2.1,4.51-2.93,5.76l.72,2.6-.42,1.15a4.66,4.66,0,0,1-2,0s-1.29,2.82-3.39,3.84L424,138.22a2.21,2.21,0,0,1-2.24-1.5,1.6,1.6,0,0,0-2.06.43c-1,1-4.31,4-8.41,2a39.05,39.05,0,0,0,9.12,3.47c6.73,2.75,12.17,2.14,16.37.34-.12-.68.66-2.05,1.34-4.16l.14-.42c.81-2.2,1.44-1.36,3-2.92a1.66,1.66,0,0,1,1.47-.62c.71.13,1.15.8,1.51.24a3.44,3.44,0,0,1,2.1-1.08c.31-.64,1.47-4.69,2.18-6.86.07-.13.16-.26.24-.39l-.35.46c.19-1.3.44-3.63.44-3.63-.65-3.31.93-4.91,2.4-7.4a15.39,15.39,0,0,1,2.32-2.25l0,.07a9.88,9.88,0,0,1,1-.51l0,.21a13.3,13.3,0,0,0-1.61-5.21A20.92,20.92,0,0,0,448.9,103.67Zm-36-6.2a1,1,0,1,1,1.3-.7A1.05,1.05,0,0,1,412.86,97.47Z"/><path class="cls-3" d="M330,178.41h0a21.91,21.91,0,0,1-2.95-10.81A21.72,21.72,0,0,0,330,178.41Z"/><path class="cls-3" d="M334.41,184.53l.06.06.45.52h0c.37.42.84.91,1.39,1.45-.82-.83-1.57-1.66-2.26-2.48Z"/><path class="cls-3" d="M320.61,101.35a40.65,40.65,0,0,1-7.27-6.07A33.54,33.54,0,0,0,320.61,101.35Z"/><path class="cls-3" d="M366.43,69.29c-.77-.66-1.66-1.37-2.68-2.11a8.33,8.33,0,0,0,1.33,1.1C365.49,68.56,366,68.91,366.43,69.29Z"/><path d="M357.33,105.3a23.89,23.89,0,0,1-19.45,3.12s-1.2-2.23-1-3a1.33,1.33,0,0,0-1.29-1.66c-1,0-1.84-.33-1.52-1.42s.22-1.73-.48-1.86-1.72.75-1.63-.79-1-3.21.43-6.67,2.06-3.63,2.92-4.49,1.51-.82,1.7-2.7S336.34,83,338,83l.77-2.08,1.55.32s.65-1.68,1.19-1.22a3.83,3.83,0,0,0,2.37.56c.4-.1.94-.16.67.5s-1,1.35.07,1.74.39.72.75,1.5A3.4,3.4,0,0,0,347.09,86a12.83,12.83,0,0,0,6.41,3.27l-2.8-1.37.44-1,5.47,1.19s1.39.34.14-1.23c0,0-2.29-.83-2.47-1s-.37-.26.4-.85a11.21,11.21,0,0,0-1.83-.85,7.54,7.54,0,0,1-2.47-1.49c-.6-.48-1.74-.67-1.81-.92a2.18,2.18,0,0,1,.32-1.32c.2-.16.37,1,1.85,0,0,0,1.84-4.38,2.87-4.82,1.88-.8,3.38-1.07,4.75.31,0,0-2.22,1.2-2.28,2.15s-.76,3.28,0,4.25c.5.64.43,1.55,2.67,2.07s3.78,1.58,5.67-1a29.66,29.66,0,0,1,1.45-3.6c.35-.42,0,.61,1.65,2.21s1.34,4,2,4.17,1.2.73,1.5.23-1.5-7.47-7.2-10.37S354,72.73,349.84,73c0,0-3.12.18-2.5-2.62s1.4-9.65,5.56-9.08c.48.07.9.15,1.27.24-1.77-.87-3.71-1.75-5.86-2.65,0,0-14.67-6.64-21.93-4.45,0,0-11.64,1.19-15.15,18.32,0,0-3.72,12.27.86,20.63-4.54-8.9-.13-23.19-.13-23.19,2.89-10.56,9-13.38,9-13.38,5.07-3.54,11.11-3,15.4-1.88A28.31,28.31,0,0,1,341.86,57c-.8-.52-4.06-.6-4.27-.6s-.21.33-.32.72c-.18.57-.34,1.27-.34,1.27.3.79,1.06,1,1.71,1.44a2.18,2.18,0,0,1,1,1.78c.21,2.25-2.13,3.67-3.73,5.11a3.41,3.41,0,0,0-.71.88,1.5,1.5,0,0,0,0,1.63s.63.19,1.27.41a12,12,0,0,1,1.21.47c.65.33.35.86.12,2.09-.17.91-2,1.65-3,2a1.28,1.28,0,0,0-.88,1.13c-.15,2.26,1.14,7.44,1.14,7.44-.2,3-3.67,7.46-3.67,7.46-1,1.13-4.81,14.43-4.81,14.43q-.84-.37-1.62-.78a73.81,73.81,0,0,0,9,4s18.8,8.49,34.07-12.64a21,21,0,0,0,3.7-6.43c-.4.86-.76,1.54-.91,2C370.26,92.3,364.05,100.82,357.33,105.3ZM361.8,78a.93.93,0,1,1-1.16.62A.93.93,0,0,1,361.8,78Z"/><path class="cls-3" d="M357.46,63.28a10.43,10.43,0,0,0,2.22,1.26Q358.63,63.91,357.46,63.28Z"/><path class="cls-3" d="M330,178.42a27.84,27.84,0,0,0,2.69,4h0A45.29,45.29,0,0,1,330,178.42Z"/><path class="cls-3" d="M442.23,139.62a23.33,23.33,0,0,1-2.92,2.11A22.61,22.61,0,0,0,442.23,139.62Z"/><path class="cls-3" d="M369,71.79a20.55,20.55,0,0,1,1.92,2.77A14.15,14.15,0,0,0,369,71.79Z"/><path class="cls-3" d="M408.26,137.39c.87.56,1.74,1.08,2.59,1.54-.25-.15-.5-.31-.76-.49C410.09,138.44,409.38,138.09,408.26,137.39Z"/><path class="cls-3" d="M346.47,193.94a56.9,56.9,0,0,1-6.14-4A55.41,55.41,0,0,0,346.47,193.94Z"/><path d="M408,142.49c.35.25.52.43.43.52a47.81,47.81,0,0,0-3.74,6.5c-.52,1.26-5.93,4.11-6,3.57s.13-2.2-.53-2.47-2.65-.13-2-3.43-2.72-3.13-3-5.08-.36-5.26-2.43-7.08-4.3-2.33-5.43-3.05a8.64,8.64,0,0,1-2-1.95s-1.16-.87,2.41-1.07,5.32-4.52,5.32-4.52a33.74,33.74,0,0,0,3.69,6.42,38.1,38.1,0,0,1-4.1-8c-1.53-3.42-3-12-3.25-13.59,1,9.13,3.18,12.73,2.92,13.36s.24,1.19-4.28-.39-4.22-1.12-7.13-1.39-5.41-.36-5.41-.36c-7.41-1.92-9.1-5.26-10.09-6.68s-1.68-.88-2.47-.74-5.25-1.39-6.17-1.69a24.65,24.65,0,0,1-4.49,1.37c.16.88,1.35,6.61,5.67,8.53a2.47,2.47,0,0,1-2.21.38,3.5,3.5,0,0,1-2.79.36s-1.71,2.69-3.2,2a3.9,3.9,0,0,1-1.84-3.09c-.06-.54-2.09,1.24-3,1.63s-1.8,1.25-2.79,1.33-1.12-.26-1.67.09-2.59,1.91-3.18-.35.91-2,1.17-2.41-.66-2.29,1.86-3.7c0,0-2-2.61-.41-4.6a28.94,28.94,0,0,0,11,.13c-11.62,1.73-23.09-4.12-23.09-4.12s-2.28,1.3-1.73,3.35,1.74,4.13.2,6.27-2.46,1.88-1.83,4.58c0,0-1.22,7.38-.53,10.47s.71,3.63,1.48,7.37,1.32,6.7,1.77,8.81,1.12,10.06.5,13c0,0,0,3.06.42,3.73a1.18,1.18,0,0,0,1.08.59s6.87,2.27,7.54,2.38,2.56,1.19,2.6-.47-1.74-3.82-.44-4.27.86-.71,1.66.36,3.74,5.95,4.9,6.72,2.34,1,1.51,2.08-2.11.71-2.11,2.38-1.09,2.74,1.13,6.15a35.22,35.22,0,0,0,3.4,4.78,55.12,55.12,0,0,1,4.22,6.37l.11.22-4-.08-1.09.25.75.42s2.21.83,5.22,1.74h0l1.31.38.2.05c.39.12.79.22,1.2.33l.35.1,1.09.27.48.12,1,.22.54.12,1,.19.57.1.93.15.57.09.95.1.48,0c.46,0,.92.06,1.35.07a18.51,18.51,0,0,0,7.73-.56s2.53-1,4-1.68,11.39-4.05,13.65-8.59c0,0,3.39-1.69,4.28-2s10-3.74,20.54-12.65a58.2,58.2,0,0,0,11.6-13.18s3.47-.48,4.21-5.93a26.89,26.89,0,0,1,2.2-3.75c.64-.62-.92-.82-.92-.82-3.88.86-12.41-1.66-12.41-1.66A72.45,72.45,0,0,1,408,142.49Zm-66-12.68a10.88,10.88,0,0,1,8.8-3.93c4.11,0,12.62,3.93,13.62,3.86s.52-2.24.6-2.51.3-.73,2.78-.06,3.41,4.31,3.41,4.31,6.12,2,6.93,1.55a5.1,5.1,0,0,1,4.8-.35c2.48,1,2,2.47,2.06,3.6s.69,1.18,2.7,3.2,1.3,1.88,1,3.36-1.91,3.16-3.64.7-4.46-2.31-5.44-2.53-1.61.64-2.92-.2-3.71-1.56-9.39-1.55-7.26-2.17-8.19-3.57a1.71,1.71,0,0,0-2.26-.68c-2.17,1.29-4-1.44-4-1.44l-4.45-1.11s.52,0-.35-1.07-2.89.7-4.85.26S342,129.81,342,129.81Zm.66,19.45s-.53-.46-.75.52-.73,2.17-1.51,1.79-.79-.84-.76-1.95a32.55,32.55,0,0,0-.9-6.69s-.6-2.49,1.12-1.75,3.65,4.75,6.57,6.23.66,1,2,2.47,2.84,4.21,7.79,6.14c0,0,2.3-2.22,3.37.71a18.43,18.43,0,0,0,6,1.2c2.92,0,3.43-.24,3.64-1.67s-2.81-3.83-3.61-5.64c0,0,.48,3.88-1.43,3.53s-2.89-5.05-4.91-5.05c0,0-.68,2.78-3,3,0,0-4.08-1.07-5.23-3.73l-1.35-.71c-1.36-.7-3-2.32-2.89-4.07,0-.26-.33-2.11,1.39-1.38s2.78.69,2.55,2.93c0,0,1.28-2.52,2.79-1.32s1.31,1.59,2.87,1.38,1.65.2,2.3,1.51,0-.38,2-.29,2.37-.93,4.1,0,3,1.33,3.84.63,1.59-.34,2.4.2,1.88.71,2.11,2.42-1.5,3.28-1.11,4.45a6.41,6.41,0,0,1-1,2c-.52.51,9.11-2,12.64-1.07,0,0,.18,2.15-2.56,4.54s-4.91,5.17-7,5.59-3.08-.17-2.1-1.22,1.67-.85,1.11-1.46-1.56,1.47-2.94,1.58-5,4.56-15.25,2.59S343.37,155.08,342.65,149.26Zm42.77,18.43c-1.11.71-.64,1.15-2,.6s0,.45-.65,1.15-.59,2.73-1.93,2.48-1.95-.73-2.52-.31-2.15.7-2.39,1.75.51,2,.58,2.79a2.49,2.49,0,0,1-.62,2c-.57.65-1.91,1.89-2.84,1.76a18.68,18.68,0,0,1-2.46-.51c-.61-.19-.76.29-1.17.92a1.89,1.89,0,0,1-2.48,1c-1.57-.47-2.34-1.15-2.85-.18a2.16,2.16,0,0,1-2.83.94c-1-.53-2.19-1.63-3.08-1.89s-.73-.82-1.76.37-2,2-3.4,1.14-.93-2.37-1.4-3-1-1.42-1.45-.66-1.15,2.34-1.51,1.79a1.15,1.15,0,0,1-.13-1.31,5.86,5.86,0,0,0,.46-2c-.07-.24-1.29-.91-1.35-.48s.17.43.2,1.11.51,1.27-.56,1.1-1.23-.37-1.17-1.32-.75-2.47.12-2.65.19-.39,1.57.24,2.71,1.19,3.64,1.54.39,1.69,1.65,1.24.16-1.29,2.71-.83,3.27,1.06,6.61.12a18.73,18.73,0,0,0,5.94-2.4c1.82-1.09,2.93-2.55,3.48-1.64s1,.74,1-.08-1-.83.46-2,2.06-1.4,2.39-3.24.77-2.31,2.15-2.42,2.62-.78,2.65-1.14c0,0-1.39-2.81,1.72-3.22a1.45,1.45,0,0,1,2.12-.11c1.36.93.73,1,1.42,2.22s.77.67.57,1.58S386.53,167,385.42,167.69Z"/><path class="cls-3" d="M337.2,187.4l.07.06.76.67C337.74,187.88,337.46,187.64,337.2,187.4Z"/><path d="M443,30.13c-3.29,1.36-4,1.76-4.65.5s1.21-.72,2-1.13A10,10,0,0,0,443,27l.14-.2h0a6.17,6.17,0,0,0,.39-.6,5.17,5.17,0,0,0,.36-.75l0-.05a3.4,3.4,0,0,0,.18-.84,2.81,2.81,0,0,0-.35-1.56c-.87-1.61-3.34-1.45-3.34-1.45s.88-3.25-1.12-4.38-3.27-.81-3.63-.19c0,0-2.53-1.48-3.12,1.4,0,0-3,.28-1.66-2.3a3.42,3.42,0,0,0,.5-.76,4.4,4.4,0,0,0,.18-.48l0-.06a2.62,2.62,0,0,0-.2-2,5.26,5.26,0,0,0-2.57-2.11s.62-2.06-2.48-2.54-2.85,1.12-2.85,1.12L419.79,8a1.57,1.57,0,0,0-1,1.24s-.94.71-1,1.42a7,7,0,0,1-.81,2.09l-1.46-.52.9-2.71s.38-1-2.34-1.51a3.68,3.68,0,0,1,0-1.54h0a2.42,2.42,0,0,1,.12-.5c.39-1,1.24-2.23-.35-3.13h0a.91.91,0,0,1-.13-.08,2.15,2.15,0,0,0-2.6-.33c-1.75.74-2.38.73-2.72,1.26a22.5,22.5,0,0,0-1.16,3c-.46,1.21-1,4.75-3.18,4.9s-1.08-1.5-.78-2.22-1.45-2.05-3.71-1.11c0,0,.23,1.33-1.07.85a2.06,2.06,0,0,1-1.41-1.6s-1.17-1.79-4.27-.47c0,0-3.67-.38-4.13.57s-1,.87-.87,2,.58,1.07-.38,1a1,1,0,0,0-.46,1.84c.94.47,1.58,1.65.27,1.8s-1.9-1.47-2.63.38-.05,2.86-1.43,3.26-2.72,1.88-4.24,2.15a4.48,4.48,0,0,1-.28-1.17c0-.35-.61-1.89-2.32-1,0,0-3.56-2-5.53.42a2.79,2.79,0,0,0-.53,3.26c1,1.74,1.78,2.78.42,4s-1.78.54-1.78.54-2.3-.42-2.68,1.45c0,0,1.27,1.46-.14,1.66s-2.48-.74-3.22-.06c0,0-4.36-.77-4.75.82l.91.55a20.66,20.66,0,0,1-.42,3.2c-.27.91-.2.39.71.66s-.26,2.36-1.28,1.87-1.31-.75-1.46-1.15-2.21-.13-2.67,1.71.48,2.31-.7,2.32a1.25,1.25,0,0,1-1.35-1.49c.09-.6-1.86-.11-2.16.88l-.54,1.82-1.72-.88s-1.87.25-2.17,1.24,0,3.88,0,4.69a6.19,6.19,0,0,0,1.08,3c.44.31-.47.94-.47.94s-2.38-.45-3.78-.6-.7,1.14-.7,1.14L346,53.32l.07.65A61.26,61.26,0,0,1,357.91,59a19,19,0,0,0,2.38-.18c.94-.17,2.83-.72,3.89-.78s4.9,1.32,5.65,1.32-1.05-1,1-1.93,2-.35,2.07-.94A.63.63,0,0,1,374,56c.48.37,1.31.84,1.92.58a.87.87,0,0,0,.6-1c0-.45-1.61-1.6-1.49-2s-.76.07-1.45-.14a4.3,4.3,0,0,0-2.07.2,2.57,2.57,0,0,1-1.22.08c-.89,0-1.28.29-2.6.2s-4.44,1.12-7.95-.37L356.89,55l-1-.51a7.8,7.8,0,0,0,3.41-3.91l1.43-.31s1.39-2.87,3.28-3.72a9.86,9.86,0,0,1,3.63-4.36l-.88-1.31.6-1.24,1.76.08s.55-4.31,2.84-3.48l1.24-1.41,2,.37s.56-4.61,7.08-3.93c0,0,.53-1,3.22-.53s.06-.95,4.34.19a10.2,10.2,0,0,0,2.87-.11c2.1-.27,1.59-1.32,4-.73s.55.16,3.45.95.56-.65,4.45.82,1.39.86,4.28,1.43.53-.29,4.39,1,.8-.43,3.87,1.31,7.1,2.2,8.53,3.15,2.24.75,3.51,1.73,2.06,2.33,3.41,2.81.66-1.44,2.06.62,1.7,1.78,2.53,2.25,1.26,2,2.62,2.73,2.26.68,2.7,1.7a1.6,1.6,0,0,1-.38,1.76s-1.21.53.21,1,1.73-.53,1.93.8-.46,1.51.38,2.21a7.07,7.07,0,0,1,1.94,2c.31.69,1.18,1.54,1.56,2.26a9.51,9.51,0,0,1,.77,2.17A9.37,9.37,0,0,0,449.6,65a4.1,4.1,0,0,1,.49,2.09,5.88,5.88,0,0,0-.11,2.35,7.86,7.86,0,0,0,.15,2.73l-.31.81s-1.63-.79-2.85-7.2c0,0-1.21,2.55,2.48,10.15a1.07,1.07,0,0,1-1.58.57c-1.18-.58-.81-1.29-1.05-2.26s-1.38-4.59-2-3.74a40.92,40.92,0,0,1,1.35,5c.21,1.56-.11,3.85.21,4.54a2.82,2.82,0,0,1-.33,2.82c-.7.61-1.87,1-2.41.09s-1.07-.92-.7-2.15l.16-.55s-1.1.2-.69-1.17,1-2.47.53-2.53A3,3,0,0,0,439.5,78c-1.05,2-1.46,2.62-.91,3.76s.32,6.89-.22,8.44-1.08,1.39-1.45.38-1.38-10.34-3.74-12.17c0,0-1.26-2-2.2.84,0,0-1.32,1-3.66-2.22s-1.19-1.25-2.34-3.16-2.88-1.09-3.47-1.86.07-.73-1.13-1.46-.61-.71-3-2.31-2.65-.64-1.84-.1a13.46,13.46,0,0,1,2.58,2.34c.78.9,1,1,1,1.87s2.91,2.74,3.53,3.15a8.53,8.53,0,0,1,2.19,1.92c.64.86.18,1.63,1.52,2.4s1.88,1.46,3.18,1.85,2-.08,2.53.76-.12,2.13-.05,2.67,2.39,2.73,2.35,3.61a7.72,7.72,0,0,0,.15,1.61,190,190,0,0,1,23.24,10.32,14.67,14.67,0,0,0,1.37-.85c.33-.23.69-.49,1.05-.79l.14-.12.4-.35.15-.14.42-.42.1-.1c.16-.17.31-.36.46-.55a1.71,1.71,0,0,0,.11-.14l.3-.44a2.12,2.12,0,0,0,.11-.21,3.68,3.68,0,0,0,.23-.44,1.54,1.54,0,0,0,.08-.19,3.89,3.89,0,0,0,.21-.66l-1.58-.74.2-1.56-3-.73a15.71,15.71,0,0,0,2.06-1.78c.14-.14.27-.29.41-.45l.06-.07.36-.42a1.13,1.13,0,0,1,.1-.13l.29-.4.12-.18.24-.38.12-.22.19-.38.1-.24a3,3,0,0,0,.14-.39,1.83,1.83,0,0,0,.08-.25,3,3,0,0,0,.08-.43c0-.07,0-.14,0-.22a4.75,4.75,0,0,0,0-.66s-2.2-.47-.26-2.14S468,85,468.27,77.75a2.85,2.85,0,0,0-.47-.89h0c-.35-.41-.89-.51-1.54,1a3.32,3.32,0,0,0-2.75,1h0a3.77,3.77,0,0,0-.51.68,4.68,4.68,0,0,0-.4.95S461.17,81,461,80s.08-1.77-.58-2,1.51-.54,2.23-.23,2-2.46,1.72-3.62-.8-2.76-3.25-1.79c0,0-1.87.52-2.18-.83s.43-2,2.77-1.42c0,0,.26-1.18-.85-3.77l.07-.06h0c.39-.34,1.84-1.77,1-3.33a4,4,0,0,0-1.67-1.54s-1.45-.26-1-2.1c0-.12.08-.25.12-.37h0l.07-.18c.4-1.18,1.09-2.37,1.39-3.37,0,0,0-.07,0-.11a3.28,3.28,0,0,0,.08-.41l0-.14a2,2,0,0,0,0-.49,1.5,1.5,0,0,0-.19-.44,3.85,3.85,0,0,0-.31-.43c-.93-1.15-2.83-2.52-3-3.42a25.73,25.73,0,0,0-1.81-3.27h0c-.12-.22-.23-.46-.33-.69s-.07-.19-.11-.28-.13-.37-.19-.55a5,5,0,0,1-.11-.5c0-.14-.06-.27-.07-.41a3.62,3.62,0,0,1,0-.93c.44-2.66,1.41-2,2.23-2.93a.58.58,0,0,0,.12-.25v0a1,1,0,0,0,0-.29h0c-.23-1.19-2.51-3.13-3.64-2.64-1.35.59-.25,1.73-3.25.92,0,0-1.32-.4-1.72.65s-3.12-1-2.23-2.47a3.07,3.07,0,0,1,.61-.7h0c.16-.15.33-.29.5-.43l.33-.28a.27.27,0,0,0,.08-.07l.33-.3.07-.08a3.09,3.09,0,0,0,.33-.39l.07-.1a2.37,2.37,0,0,0,.26-.47l0,0a2.64,2.64,0,0,0,.16-.54l0-.11a3.55,3.55,0,0,0,0-.67.76.76,0,0,0,0-.15,5.45,5.45,0,0,0-.1-.84A6.21,6.21,0,0,0,443,30.13Z"/><path class="cls-3" d="M453.47,114.73l-.28,1.54A15,15,0,0,0,453.47,114.73Z"/><path class="cls-3" d="M387.29,108.75c-.07-1.36-.15-3.24-.21-5.36-.07.44-.13.71-.13.71C387,105.79,387.14,107.33,387.29,108.75Z"/><path class="cls-3" d="M408.85,87.54a13.3,13.3,0,0,0-8.53,2.65A15.23,15.23,0,0,1,408.85,87.54Z"/><path class="cls-3" d="M334.05,184.08h0c-.13-.16-.22-.28-.28-.37C333.84,183.81,333.93,183.92,334.05,184.08Z"/><path class="cls-3" d="M386.8,94.49a4.55,4.55,0,0,0-3.45-4.15A6.25,6.25,0,0,1,386.8,94.49Z"/><path class="cls-3" d="M392.59,114.47a13.91,13.91,0,0,0,.49,1.88,32.74,32.74,0,0,0,.95,3.35,25.09,25.09,0,0,1-.63-3A12,12,0,0,1,392.59,114.47Z"/><path class="cls-3" d="M366.12,104a55.19,55.19,0,0,1-8,5.68,24.38,24.38,0,0,1-2.34,1.28A30.33,30.33,0,0,0,366.12,104Z"/><path class="cls-4" d="M419.74,137.15a1.6,1.6,0,0,1,2.06-.43,2.21,2.21,0,0,0,2.24,1.5l1.78-4.69c2.1-1,3.39-3.84,3.39-3.84a4.66,4.66,0,0,0,2,0l.42-1.15-.72-2.6c.83-1.25,2.93-5.76,2.93-5.76a4.92,4.92,0,0,0,1.3-3.35l-1-.67a17.83,17.83,0,0,0,1.07-2.59,4.5,4.5,0,0,0,.05-2.15c-.21-.28.74-1,.74-1,1.69-1.66,0-2.6,0-2.6-2.5-1.35-3.22.53-3.22.53l-1.34-.26.39-1.3-3.39-.64s.11.63-1,1.2-.79-.09-2-.37-.76.82-1.07,1.33,1.14,0,.22,1a2.13,2.13,0,0,1-2.32.5l-.11-2.12c-1.41-.28-1.56-1.52-.95-1.56s1.41-.7.38-1a1.74,1.74,0,0,1-1.13-1.46c1.16-4.88-2.55-7.93-2.57-7.12a11.75,11.75,0,0,1-.55,5.06c-.89,2.49-4,2.23-6.21,1s-3.51-1.72-2.72-4.62a6.84,6.84,0,0,1,3.25-4.1c-5.53-2.48-11.91,1.35-11.91,1.35l-1.28-.68c6.48-4.7,14.19-2,16.7-1.19s7.19,4.4,7.38,5.27.83.7,2.17,1,1.57.76,1.61,1.6.17.94.95,2.07.67-.24,1.1-.94,3.2,1,3.75,1.2a2.19,2.19,0,0,0,1.62-.18c.44-.24,1.53-4.62,1.53-4.62A3.13,3.13,0,0,0,436,96c-5.21-2.35-12.9-5.66-17.3-6.7-2.79-.66-6.27-1.7-9.82-1.74a15.23,15.23,0,0,0-8.53,2.65,16.68,16.68,0,0,0-4.46,5.36,27.87,27.87,0,0,0-3.27,18.92,12,12,0,0,0,.81,2.24,25.09,25.09,0,0,0,.63,3,33.41,33.41,0,0,0,13.25,17.07c.33.22.65.41,1,.62,1.12.7,1.83,1.05,1.83,1.05.26.18.51.34.76.49l.48.25C415.43,141.2,418.76,138.15,419.74,137.15Z"/><path class="cls-4" d="M413.46,95.48a1,1,0,0,0-.6,2,1.05,1.05,0,0,0,1.3-.7A1,1,0,0,0,413.46,95.48Z"/><path class="cls-4" d="M360.89,113.08c.79-.14,1.48-.68,2.47.74s2.68,4.76,10.09,6.68c0,0,2.51.09,5.41.36s2.6-.19,7.13,1.39,4,1.12,4.28.39-1.92-4.23-2.92-13.36l-.05-.3c0-.07,0-.16,0-.23-.15-1.42-.26-3-.34-4.65,0,0,.06-.27.13-.71-.08-2.43-.14-5.16-.19-7.77a7.84,7.84,0,0,0-.09-1.13,6.25,6.25,0,0,0-3.45-4.15l-.29,0c-3.84-1.15-6.61,2.43-6.61,2.43A57.46,57.46,0,0,1,366.12,104a30.33,30.33,0,0,1-10.32,7l-1.08.48C355.64,111.69,360.19,113.2,360.89,113.08Z"/><path class="cls-4" d="M391,124.43s-1.75,4.33-5.32,4.52-2.41,1.07-2.41,1.07a8.64,8.64,0,0,0,2,1.95c1.13.72,3.36,1.24,5.43,3.05s2.12,5.12,2.43,7.08,3.72,1.78,3,5.08,1.29,3.15,2,3.43.46,1.93.53,2.47,5.47-2.31,6-3.57a47.81,47.81,0,0,1,3.74-6.5c.09-.09-.08-.27-.43-.52a40.19,40.19,0,0,1-13.1-11.36l-.13-.18-.06-.1A33.74,33.74,0,0,1,391,124.43Z"/><path class="cls-4" d="M338.23,117.48c-2.52,1.41-1.6,3.33-1.86,3.7s-1.76.14-1.17,2.41,2.62.71,3.18.35.68,0,1.67-.09,1.85-.94,2.79-1.33,3-2.17,3-1.63A3.9,3.9,0,0,0,347.7,124c1.49.74,3.2-2,3.2-2a3.5,3.5,0,0,0,2.79-.36,2.47,2.47,0,0,0,2.21-.38c-4.32-1.92-5.51-7.65-5.67-8.53-.47.1-.94.18-1.42.25a28.94,28.94,0,0,1-11-.13C336.25,114.87,338.23,117.48,338.23,117.48Z"/><path class="cls-4" d="M343.16,131.65c2,.44,4-1.34,4.85-.26s.35,1.07.35,1.07l4.45,1.11s1.87,2.73,4,1.44a1.71,1.71,0,0,1,2.26.68c.93,1.4,2.51,3.59,8.19,3.57s8.07.71,9.39,1.55,1.94,0,2.92.2,3.71.07,5.44,2.53,3.35.78,3.64-.7,1-1.34-1-3.36-2.67-2.07-2.7-3.2.42-2.63-2.06-3.6a5.1,5.1,0,0,0-4.8.35c-.81.43-6.93-1.55-6.93-1.55s-.92-3.64-3.41-4.31-2.7-.21-2.78.06.39,2.43-.6,2.51-9.51-3.9-13.62-3.86a10.88,10.88,0,0,0-8.8,3.93S341.2,131.21,343.16,131.65Z"/><path class="cls-4" d="M385.76,162.57c-.69-1.18-.06-1.29-1.42-2.22a1.45,1.45,0,0,0-2.12.11c-3.11.41-1.72,3.22-1.72,3.22,0,.36-1.28,1-2.65,1.14s-1.82.57-2.15,2.42-.91,2-2.39,3.24-.44,1.21-.46,2-.44,1-1,.08-1.66.55-3.48,1.64a18.73,18.73,0,0,1-5.94,2.4c-3.34.94-4.06.35-6.61-.12s-1.46.39-2.71.83-.71-.88-1.65-1.24-2.26-.9-3.64-1.54-.69-.43-1.57-.24-.06,1.69-.12,2.65.1,1.15,1.17,1.32.58-.43.56-1.1-.25-.68-.2-1.11,1.28.24,1.35.48a5.86,5.86,0,0,1-.46,2,1.15,1.15,0,0,0,.13,1.31c.36.55,1.06-1,1.51-1.79s1,0,1.45.66,0,2.17,1.4,3,2.38,0,3.4-1.14.87-.64,1.76-.37,2.05,1.36,3.08,1.89a2.16,2.16,0,0,0,2.83-.94c.51-1,1.28-.29,2.85.18a1.89,1.89,0,0,0,2.48-1c.41-.63.56-1.11,1.17-.92a18.68,18.68,0,0,0,2.46.51c.93.13,2.27-1.11,2.84-1.76a2.49,2.49,0,0,0,.62-2c-.07-.77-.82-1.74-.58-2.79s1.81-1.32,2.39-1.75,1.17.06,2.52.31,1.28-1.78,1.93-2.48-.68-1.7.65-1.15.86.11,2-.6.71-2.62.91-3.54S386.45,163.74,385.76,162.57Z"/><path class="cls-4" d="M355,166.71c10.3,2,13.88-2.48,15.25-2.59s2.38-2.2,2.94-1.58-.12.41-1.11,1.46,0,1.65,2.1,1.22,4.24-3.2,7-5.59,2.56-4.54,2.56-4.54c-3.53-.91-13.16,1.58-12.64,1.07a6.41,6.41,0,0,0,1-2c-.39-1.17,1.35-2.74,1.11-4.45s-1.3-1.88-2.11-2.42-1.52-.91-2.4-.2-2.12.33-3.84-.63-2,.06-4.1,0-1.37,1.61-2,.29-.75-1.72-2.3-1.51-1.37-.19-2.87-1.38-2.79,1.32-2.79,1.32c.23-2.24-.84-2.19-2.55-2.93s-1.36,1.12-1.39,1.38c-.15,1.75,1.53,3.37,2.89,4.07l1.35.71c1.15,2.66,5.23,3.73,5.23,3.73,2.3-.2,3-3,3-3,2,0,3,4.7,4.91,5.05s1.43-3.53,1.43-3.53c.8,1.81,3.81,4.21,3.61,5.64s-.72,1.65-3.64,1.67a18.43,18.43,0,0,1-6-1.2c-1.07-2.93-3.37-.71-3.37-.71-5-1.93-6.43-4.69-7.79-6.14s.9-1-2-2.47-4.85-5.49-6.57-6.23-1.12,1.75-1.12,1.75a32.55,32.55,0,0,1,.9,6.69c0,1.11,0,1.57.76,1.95s1.29-.81,1.51-1.79.75-.52.75-.52C343.37,155.08,344.73,164.74,355,166.71Z"/><path class="cls-4" d="M370.88,74.56A20.55,20.55,0,0,0,369,71.79a25.06,25.06,0,0,0-2.53-2.5c-.48-.38-.94-.73-1.35-1a8.33,8.33,0,0,1-1.33-1.1c-1.17-.84-2.52-1.72-4.07-2.64a10.43,10.43,0,0,1-2.22-1.26c-1-.56-2.12-1.13-3.29-1.7-.37-.09-.79-.17-1.27-.24-4.16-.57-4.95,6.28-5.56,9.08s2.5,2.62,2.5,2.62c4.2-.31,8.24.16,13.93,3.06s7.5,9.86,7.2,10.37-.89,0-1.5-.23-.35-2.56-2-4.17-1.3-2.63-1.65-2.21a29.66,29.66,0,0,0-1.45,3.6c-1.89,2.56-3.44,1.5-5.67,1s-2.17-1.43-2.67-2.07c-.75-1-.05-3.3,0-4.25S358.36,76,358.36,76c-1.37-1.38-2.87-1.11-4.75-.31-1,.44-2.87,4.82-2.87,4.82-1.48,1-1.65-.2-1.85,0a2.18,2.18,0,0,0-.32,1.32c.07.25,1.21.44,1.81.92a7.54,7.54,0,0,0,2.47,1.49,11.21,11.21,0,0,1,1.83.85c-.77.59-.59.72-.4.85s2.47,1,2.47,1c1.25,1.57-.14,1.23-.14,1.23l-5.47-1.19-.44,1,2.8,1.37A12.83,12.83,0,0,1,347.09,86a3.4,3.4,0,0,1-1.68-1.62c-.36-.78.33-1.1-.75-1.5s-.35-1.07-.07-1.74-.27-.6-.67-.5a3.83,3.83,0,0,1-2.37-.56c-.54-.46-1.19,1.22-1.19,1.22l-1.55-.32L338,83c-1.7-.06-.88.93-1.07,2.82s-.85,1.83-1.7,2.7-1.51,1-2.92,4.49-.34,5.13-.43,6.67.92.65,1.63.79.81.76.48,1.86.55,1.43,1.52,1.42a1.33,1.33,0,0,1,1.29,1.66c-.16.77,1,3,1,3a23.89,23.89,0,0,0,19.45-3.12c6.72-4.48,12.93-13,13.47-14.55.15-.42.51-1.1.91-2a17,17,0,0,0-.34-12.89A4.71,4.71,0,0,0,370.88,74.56Z"/><path class="cls-4" d="M361.26,79.75a.93.93,0,1,0-.62-1.16A.93.93,0,0,0,361.26,79.75Z"/><path class="cls-4" d="M403.47,82.6a126.73,126.73,0,0,1,24.92,5.56c2.13.69,4.2,1.42,6.18,2.15a7.72,7.72,0,0,1-.15-1.61c0-.88-2.29-3.07-2.35-3.61s.62-1.83.05-2.67-1.23-.37-2.53-.76-1.85-1.08-3.18-1.85-.88-1.54-1.52-2.4a8.53,8.53,0,0,0-2.19-1.92c-.62-.41-3.55-2.34-3.53-3.15s-.23-1-1-1.87a13.46,13.46,0,0,0-2.58-2.34c-.81-.54-.52-1.5,1.84.1s1.76,1.57,3,2.31.54.68,1.13,1.46,2.33,0,3.47,1.86,0,0,2.34,3.16S431,79.24,431,79.24c.94-2.85,2.2-.84,2.2-.84,2.36,1.83,3.37,11.17,3.74,12.17s.91,1.18,1.45-.38.78-7.31.22-8.44-.14-1.76.91-3.76a3,3,0,0,1,3.43-1.51c.44.06-.12,1.16-.53,2.53s.69,1.17.69,1.17l-.16.55c-.37,1.23.15,1.24.7,2.15s1.71.52,2.41-.09a2.82,2.82,0,0,0,.33-2.82c-.32-.69,0-3-.21-4.54a40.92,40.92,0,0,0-1.35-5c.63-.85,1.78,2.78,2,3.74s-.13,1.68,1.05,2.26a1.07,1.07,0,0,0,1.58-.57C445.76,68.3,447,65.75,447,65.75c1.22,6.41,2.85,7.2,2.85,7.2l.31-.81a7.86,7.86,0,0,1-.15-2.73,5.88,5.88,0,0,1,.11-2.35A4.1,4.1,0,0,0,449.6,65a9.37,9.37,0,0,1-.63-2.13,9.51,9.51,0,0,0-.77-2.17c-.38-.72-1.25-1.57-1.56-2.26a7.07,7.07,0,0,0-1.94-2c-.84-.7-.18-.88-.38-2.21s-.51-.3-1.93-.8-.21-1-.21-1a1.6,1.6,0,0,0,.38-1.76c-.44-1-1.35-1-2.7-1.7s-1.79-2.25-2.62-2.73-1.14-.19-2.53-2.25-.71-.14-2.06-.62-2.13-1.83-3.41-2.81-2.08-.77-3.51-1.73-5.47-1.41-8.53-3.15,0,0-3.87-1.31-1.5-.45-4.39-1-.39,0-4.28-1.43-1.56,0-4.45-.82-1-.37-3.45-.95-1.93.46-4,.73a10.2,10.2,0,0,1-2.87.11c-4.28-1.14-1.66.32-4.34-.19s-3.22.53-3.22.53c-6.52-.68-7.08,3.93-7.08,3.93l-2-.37L372,36.24c-2.29-.83-2.84,3.48-2.84,3.48l-1.76-.08-.6,1.24.88,1.31a9.86,9.86,0,0,0-3.63,4.36c-1.89.85-3.28,3.72-3.28,3.72l-1.43.31a7.8,7.8,0,0,1-3.41,3.91l1,.51,2.83-1.46c3.51,1.49,6.64.27,7.95.37s1.71-.24,2.6-.2a2.57,2.57,0,0,0,1.22-.08,4.3,4.3,0,0,1,2.07-.2c.69.21,1.58-.27,1.45.14s1.47,1.56,1.49,2a.87.87,0,0,1-.6,1c-.61.26-1.44-.21-1.92-.58a.63.63,0,0,0-1.05.51c0,.59,0,0-2.07.94s-.29,1.93-1,1.93-4.59-1.37-5.65-1.32-2.95.61-3.89.78a19,19,0,0,1-2.38.18c9.78,5.31,19,12.58,25.36,16.6C389.83,79.77,403.47,82.6,403.47,82.6Z"/><path d="M338.1,188.19l1,.83,0,0c.37.3.76.59,1.16.9h0a56.9,56.9,0,0,0,6.14,4h0l1.09-.25,4,.08-.11-.22a55.12,55.12,0,0,0-4.22-6.37,35.22,35.22,0,0,1-3.4-4.78c-2.22-3.41-1.12-4.47-1.13-6.15s1.29-1.33,2.11-2.38-.35-1.31-1.51-2.08-4.11-5.64-4.9-6.72-.37-.8-1.66-.36.47,2.61.44,4.27-1.94.58-2.6.47-7.54-2.38-7.54-2.38v.06a.57.57,0,0,1,0,.12v.07c0,.07,0,.15,0,.25v0A21.91,21.91,0,0,0,330,178.42a45.29,45.29,0,0,0,2.69,4h0c.31.38.62.77,1,1.15l.07.09a.25.25,0,0,0,0,.08c.06.09.15.21.28.37.69.82,1.44,1.65,2.26,2.48.28.28.59.55.88.83s.54.48.83.73Z"/><path class="cls-5" d="M347.85,37.87c.21,0,.34-.87.4-1.51h0l-1.68.75h0A1.68,1.68,0,0,0,347.85,37.87Z"/><path class="cls-5" d="M365.05,27c1.06,0,.26-1.59.07-1.95h-.78l-.34,0h0a1.61,1.61,0,0,0-.37.07h0a2.42,2.42,0,0,0-1.45,1.27h0A6.82,6.82,0,0,0,365.05,27Z"/><path class="cls-5" d="M368.75,23.74c1.74-1,2-1.37,1.71-1.89l-.18-.31c-.47-.71-2.22-1.53-1.41-4,.66-2,1.46-.94,1.76-1.86l-.52.09s-3.94,1.16-3.72,4a6.52,6.52,0,0,0,.13.89c0,.07,0,.12,0,.19a5,5,0,0,0,.16.54l0,.08c.35.94.77,1.32.47,2.12h0A1.29,1.29,0,0,0,368.75,23.74Z"/><path class="cls-5" d="M380.31,16.68a4.08,4.08,0,0,0,2.29-3.91h0l-.24.12a3.59,3.59,0,0,0-.38.21l-.21.11a7.13,7.13,0,0,0-.59.45l-.14.13a5.18,5.18,0,0,0-.55.59l-.06.08a4.91,4.91,0,0,0-.5.84l-.09.21a5.36,5.36,0,0,0-.35,1.09l0,0h0A1.34,1.34,0,0,0,380.31,16.68Z"/><path class="cls-5" d="M385.83,12.06c.23.1.65-1.3.08-1.58s-.63-.44-.45-1.29.75-.69,1-.64.1-1,0-1.24a9.14,9.14,0,0,1-.2-1.42h0a2.3,2.3,0,0,0-.36,0h0a2.12,2.12,0,0,0-.41.08h0a2.37,2.37,0,0,0-.34.13l-.09,0a2,2,0,0,0-.35.24l-.05,0a1.93,1.93,0,0,0-.26.3.75.75,0,0,1-.07.12,2.67,2.67,0,0,0-.21.48.13.13,0,0,1,0,.06A3.37,3.37,0,0,0,384,8a1.27,1.27,0,0,0,0,.2A4.76,4.76,0,0,0,384,9V9l-.07.05-.12.11h0l-.16.15-.09.11-.08.1-.12.16a.56.56,0,0,0-.05.08,3.2,3.2,0,0,0-.19.37s0,.08,0,.12a1.41,1.41,0,0,0-.06.22.77.77,0,0,0,0,.15,1.94,1.94,0,0,0,0,.24,2.45,2.45,0,0,0,0,.27s0,.07,0,.1l0,0A2.5,2.5,0,0,0,385.83,12.06Z"/><path class="cls-5" d="M356.94,33.7c.87.15.37-.5.05-1.25s-.06-.75.39-2.5a2.28,2.28,0,0,0-.85-2.16h0l0,0a5.42,5.42,0,0,0-.48.26h0a3.34,3.34,0,0,0-.41.3l-.07.05a2.89,2.89,0,0,0-.29.32l-.07.09a2,2,0,0,0-.24.45q-.08.23-.12.42s0,0,0,.06-.05.19-.07.27,0,.06,0,.09l0,.19v0a1.21,1.21,0,0,0,0,.18h0c0,.76.74.51.49,2.45h0A4.32,4.32,0,0,0,356.94,33.7Z"/><path class="cls-5" d="M352.49,37.05c1,.54.66-1.58.37-2.87h0l-2.14,1-.08,0A3.83,3.83,0,0,0,352.49,37.05Z"/><path class="cls-5" d="M344.83,47c.46,0-.18-1-.07-1.48s-.4-1.21-.62-1.93a3.41,3.41,0,0,1,.05-2.09,9.7,9.7,0,0,0-.57-3.19h0l-1,.34-.17,0c-.32.09-.61.16-.84.2a13.43,13.43,0,0,0,.33,7.3A22.91,22.91,0,0,0,344.83,47Z"/><path class="cls-5" d="M341,48.52c-.34-.58-.71-.7-1.53-1.14l-1.21.61a6.32,6.32,0,0,0-1.12.63L341.18,50A2.17,2.17,0,0,0,341,48.52Z"/><path class="cls-5" d="M317.08,104.27c-.52-.35-1-.69-1.47-1l-.23-.17c-.94-.7-1.78-1.4-2.54-2.09l-.18-.16c-.74-.68-1.4-1.34-2-2l-.16-.18c-.56-.63-1-1.25-1.48-1.84l-.12-.16-.62-.92A12.62,12.62,0,0,1,306,90.62c-4.71-4.9-1.16-22.06-1.16-22.06s.66-3.29,1.45-6.64.89-4.31.89-4.31c0-.44-.72-.81-1.07-1.34h0l-.18-.12s0-.12.05-.18l0-.25c0-.87-.81-.46-1.24-1.06s.46-1.89.6-2.87,3.38-8.46,3.38-8.46-2-1-2.31.21l-4.23,10.52s-.38,1.24,1.33,1.84,1.93,1.39,1.66,2.3-7.25,22-2.25,33c.28.61.57,1.19.88,1.75l.24.46c.27.47.54.93.82,1.38,0,.07.09.15.14.23.32.49.66,1,1,1.43.1.13.2.25.29.38.28.36.56.71.85,1l.24.29c.35.4.71.79,1.08,1.16l.3.3c.29.29.58.57.88.84l.31.28c.37.32.74.64,1.12.93l.28.22c.3.24.61.46.92.68a4.15,4.15,0,0,0,.34.24c.38.27.76.52,1.13.76l.2.12,1,.59.34.19c.36.21.72.4,1.08.59l.06,0h0l.77-.78Z"/><path class="cls-5" d="M346.45,194a38.54,38.54,0,0,1-9.18-6.5l-.07-.06c-.29-.28-.6-.55-.88-.83-.55-.54-1-1-1.39-1.45h0l-.45-.52-.06-.06-.35-.44h0q-.72-.86-1.35-1.68h0a27.84,27.84,0,0,1-2.69-4h0a31.9,31.9,0,0,1-2-3.82c-1.5-1.92-1.73-6.38-1.77-7.27v-.13a13.7,13.7,0,0,0-1-2.34,30.06,30.06,0,0,1-.73-4.94c.45-3.21-.67-8.52-.91-9.42s-1-9.35-1.71-10.17-.94-5.22-1.2-6.53a30.84,30.84,0,0,1-.16-4.55c-.75-1.72,0-4.24.44-6a23.12,23.12,0,0,0,.45-4.18c.12-1.6,1.1-1.38,1.67-3.14a7.11,7.11,0,0,0,0-4.18,6.81,6.81,0,0,1,.05-2.81c.11-1.24-.95-1.23-.95-1.23h0a3.69,3.69,0,0,0-1.53,2.19,6.51,6.51,0,0,0,.32,3.93,4.51,4.51,0,0,1-1.65,4.91s-3.12,13.1-.33,20.6a40.88,40.88,0,0,1,2.79,12.9s-.28,12.33,1,13.71V166s0,.1,0,.16.06.46.12.82v0c0,.11,0,.2.05.31.06.36.14.8.24,1.27,0,.17.07.33.11.51s.08.35.13.52.11.46.18.71.09.34.14.52.17.6.27.91c.05.15.09.3.14.46.16.48.33,1,.52,1.48a.36.36,0,0,0,0,.09c.18.48.37,1,.59,1.46.06.15.13.3.2.45.18.39.36.79.56,1.18.08.18.17.35.26.52.21.41.44.82.68,1.23.08.15.16.3.25.45.34.56.7,1.12,1.08,1.67h0c.38.54.78,1.08,1.21,1.61l.41.48c.31.38.64.75,1,1.12l.51.53c.36.36.74.71,1.12,1.05l.52.47c.57.48,1.17.95,1.8,1.4l0,0,0,0,.09.09.08.08.13.12.12.11.21.17.14.13.41.33.23.19.3.23.3.22.34.25.36.26.41.29.39.26.85.56c.14.09.3.18.44.28l.59.36.53.32.64.37.58.33.75.41.6.32c.42.23.85.45,1.31.68l.11.06h0l.93.16Z"/><path class="cls-6" d="M468.47,122.67l4.45-12.17a9,9,0,0,0-2.13-1.89l-.2.31h0l.27.22.09.07.17.14.07,0,.15.12L467,120.94a5.58,5.58,0,0,0-6.58,2.44c-3,6.66-9.85,15.13-9.85,15.13a25.34,25.34,0,0,1-18.82,10.83s1.56.2.92.82a26.89,26.89,0,0,0-2.2,3.75c-.74,5.45-4.21,5.93-4.21,5.93A58.2,58.2,0,0,1,414.68,173c-10.51,8.91-19.65,12.38-20.54,12.65s-4.28,2-4.28,2c-2.26,4.54-12.17,7.86-13.65,8.59s-4,1.68-4,1.68a18.51,18.51,0,0,1-7.73.56c-.43,0-.89,0-1.35-.07l-.48,0-.95-.1-.57-.09-.93-.15-.57-.1-1-.19-.54-.12-1-.22-.48-.12-1.09-.27-.35-.1c-.41-.11-.81-.21-1.2-.33l-.2-.05-1.31-.38h0a.58.58,0,0,1-.06.42,13.15,13.15,0,0,1-2.44-.24c.28.11.53.23.81.35a72.78,72.78,0,0,0,15.32,3.65c1.09.11,2.17.19,3.24.2a17.48,17.48,0,0,0,6.54-2s11.7-4.5,14.09-8.28c0,0,1.42-1.11,2.3-1.65s10.26-5.11,11.13-5.3,15.8-8.58,22.05-19.22c0,0,2.23-3.2,3.31-3.51a3,3,0,0,0,2.36-3.07,6.08,6.08,0,0,1,.45-1.82,18.61,18.61,0,0,1,3.29-5.25,1.36,1.36,0,0,1,1.32-.38,5.35,5.35,0,0,1,1.29.54,3.12,3.12,0,0,0,.76.31c.93.19,11.33-7.49,15.93-13.49,0,0,6-8.37,8-13.34a2.53,2.53,0,0,1,.22-.28c.1-.11.23-.25.39-.4l.39-.31A5.05,5.05,0,0,1,468.47,122.67Z"/><path class="cls-6" d="M352.41,196.53a.58.58,0,0,0,.06-.42h0c-3-.91-5.22-1.74-5.22-1.74l-1.43-.26-.39.1h0l.08,0c.66.32,1.34.65,2.07,1h0l2.38,1A13.15,13.15,0,0,0,352.41,196.53Z"/><path class="cls-5" d="M404,9c.7-.44,1.95-5,2.53-5.87s-.09-.51.82-1.25a5.5,5.5,0,0,0,.55-.52h0c-.21.1-.4.18-.59.25l-.13,0a1.51,1.51,0,0,1-.63.07c-1.4-.14-3,2.36-3.69,5.11C402.87,6.78,403.32,9.39,404,9Z"/><path class="cls-6" d="M413.84,2.87h0c1.59.9.74,2.11.35,3.13a2.42,2.42,0,0,0-.12.5h0a8,8,0,0,0,2.36.38,3.27,3.27,0,0,0-2-4.11,4.27,4.27,0,0,0-.09-.51A2.43,2.43,0,0,0,413.84,2.87Z"/><path class="cls-6" d="M431.38,12.76a2.62,2.62,0,0,1,.2,2l0,.06a4.4,4.4,0,0,1-.18.48h0l.06.11a4.77,4.77,0,0,0,1.52-1h0l-.13-.18-.06-.09-.08-.11c-.07-.11-.15-.21-.24-.33l0,0-.75-1,0,0h0l-.26.18Z"/><path class="cls-6" d="M444.1,24.52h0a3.4,3.4,0,0,1-.18.84l0,.05a5.17,5.17,0,0,1-.36.75h0a3.28,3.28,0,0,1-.39.6h0L443,27c-.19.32-.33.81.47,1a2.76,2.76,0,0,0,1.23-.23h0l.16-.15.15-.16.05-.07.14-.19.06-.1a.94.94,0,0,0,.12-.22l.06-.13a2,2,0,0,0,.09-.26,1.13,1.13,0,0,1,0-.15,2.77,2.77,0,0,0,0-.3c0-.05,0-.1,0-.15a1.71,1.71,0,0,0-.07-.49l0,0h0l0-.06h0c.06-.17.09-.64-.56-1.74h0A1.48,1.48,0,0,0,444.1,24.52Z"/><path class="cls-6" d="M449.16,32.06a3.55,3.55,0,0,1,0,.67l0,.11a2.64,2.64,0,0,1-.16.54l0,0a2.37,2.37,0,0,1-.26.47l-.07.1a3.09,3.09,0,0,1-.33.39l-.07.08-.33.3a.27.27,0,0,1-.08.07l-.33.28c-.17.14-.34.28-.5.43h0c.76.33,1.94.8,2.21.64a3,3,0,0,0,1.42-.92,4.15,4.15,0,0,1-.43-.09s1.31-2.85-1.1-4.11a5.45,5.45,0,0,1,.1.84A.76.76,0,0,1,449.16,32.06Z"/><path class="cls-6" d="M457.21,39.78h0a1,1,0,0,1,0,.29v0a.58.58,0,0,1-.12.25c-.82.93-1.79.27-2.23,2.93a3.62,3.62,0,0,0,0,.93c0,.14.05.27.07.41a5,5,0,0,0,.11.5c.06.18.12.37.19.55s.07.19.11.28.21.47.33.69h0l1.53.12h0c-.13-.26-.24-.52-.35-.77,0-.06-.05-.11-.07-.17-.08-.22-.15-.43-.21-.65s0-.16-.07-.24a4,4,0,0,1-.07-.58c0-.08,0-.16,0-.24a2.26,2.26,0,0,1,.14-.74c.71-1.77,2.36-.37,2.07-2.71,0,0-.31-.52-.84-1.29Z"/><path class="cls-6" d="M460.43,53.35a3.85,3.85,0,0,1,.31.43,1.5,1.5,0,0,1,.19.44,2,2,0,0,1,0,.49l0,.14a3.28,3.28,0,0,1-.08.41s0,.08,0,.11c-.3,1-1,2.19-1.39,3.37l-.07.18h0c.52.34,1.19.76,1.63,1h0a4.75,4.75,0,0,1,.17-.49c.4-1.05,1.61-1.77,1-4.29a4.88,4.88,0,0,0-.4-1.09,2.12,2.12,0,0,0-.11-.21,8.7,8.7,0,0,0-.53-.89h0l-.7.36Z"/><path class="cls-6" d="M461.89,62.93h0c.84,1.56-.61,3-1,3.33h0l-.07.06c1.11,2.59.85,3.77.85,3.77l1.11.37h0l0-.38a8,8,0,0,1,.31-3.42c.58-1.35,1.06-2.65-.72-3.9l-.06-.05Z"/><path class="cls-4" d="M460.37,78c.66.2.35.92.58,2s1.65.5,1.65.5a4.68,4.68,0,0,1,.4-.95,3.77,3.77,0,0,1,.51-.68h0l-.91-1.07C461.88,77.45,459.71,77.79,460.37,78Z"/><path class="cls-6" d="M467.8,76.86a2.85,2.85,0,0,1,.47.89c-.3,7.29-3.64,4-5.58,5.71s.26,2.14.26,2.14a4.75,4.75,0,0,1,0,.66c0,.08,0,.15,0,.22a3,3,0,0,1-.08.43,1.83,1.83,0,0,1-.08.25,3,3,0,0,1-.14.39l-.1.24-.19.38-.12.22-.24.38-.12.18-.29.4a1.13,1.13,0,0,0-.1.13l-.36.42L461,90c-.14.16-.27.31-.41.45h0l0,.19,1.12,1.57a20.72,20.72,0,0,0,3.21-4.71s-2.75-1.63-1.41-2.49,4.88.21,5.79-3.12c0,0,2.12-3.15-.52-4.57l-.08-.08-.05,0-.18-.17-.09-.09a1.7,1.7,0,0,1-.19-.19l-.07-.06h0l-.29.2Z"/><path class="cls-6" d="M461.36,94.49l1.58.74a3.89,3.89,0,0,1-.21.66,1.54,1.54,0,0,1-.08.19,3.68,3.68,0,0,1-.23.44,2.12,2.12,0,0,1-.11.21l-.3.44a1.71,1.71,0,0,1-.11.14c-.15.19-.3.38-.46.55l-.1.1-.42.42-.15.14-.4.35-.14.12c-.36.3-.72.56-1.05.79h0l1.49,1.46L461,101c1-.69,3.52-2.62,3.62-3.69l-.05-.11c-.25-.49-1.3-2.53-2.27-4.06h0l-.76-.2Z"/><path class="cls-5" d="M331.56,72.9c-1.25.52-1,.18-1.79,1.17s.45,4.66,1.15,7.33-.2,2.95-1.16,4.79-6.22,15-6.22,15c.53.5,2.34,2,2.51,1.44s2.09-8.55,2.88-11a33.33,33.33,0,0,1,3.16-6.17,9.64,9.64,0,0,0,1.6-5.13,48.69,48.69,0,0,0-1.13-7.4.91.91,0,0,1,0-.51h0C332.24,72.62,331.92,72.75,331.56,72.9Z"/><path class="cls-5" d="M332.66,56a6.82,6.82,0,0,1,0,1.45c-.11.59,2.92,2.59,2.83,3.8s-3,3.68-3.89,5.2-.3,1.68.82,2.29,2,.69,1.57,2a2.84,2.84,0,0,1-.29.63l-.05.09a2.07,2.07,0,0,1-.37.45,5.49,5.49,0,0,1,.6-.11c1.21-.16,2.24-1.7,2.52-2.16-.64-.22-1.27-.41-1.27-.41a1.5,1.5,0,0,1,0-1.63c-.75-.08-1.13-.49-.75-1.93.54-2,2.85-3.33,3.29-4.36a6,6,0,0,1,.88-1.48c-.65-.43-1.41-.65-1.71-1.44,0,0,.16-.7.34-1.27l-1.69-.63Z"/><path class="cls-2" d="M337.27,57.15c.11-.39.24-.71.32-.72s3.47.08,4.27.6A28.31,28.31,0,0,0,336.37,55l-.79,1.54Z"/><path class="cls-6" d="M314.63,68.17c4.59-13.69,18-12.19,18-12.19l2.92.54.79-1.54c-4.29-1.12-10.33-1.66-15.4,1.88,0,0-6.12,2.82-9,13.38,0,0-4.41,14.29.13,23.19.16.29.3.59.48.87l1.24-.1C311.51,89.75,310.05,81.85,314.63,68.17Z"/><path class="cls-2" d="M331.36,90.23s3.47-4.51,3.67-7.46c0,0-1.29-5.18-1.14-7.44a1.28,1.28,0,0,1,.88-1.13c1-.32,2.84-1.06,3-2,.23-1.23.53-1.76-.12-2.09a12,12,0,0,0-1.21-.47c-.28.46-1.31,2-2.52,2.16a5.49,5.49,0,0,0-.6.11,2.82,2.82,0,0,1-.8.54.91.91,0,0,0,0,.51,48.69,48.69,0,0,1,1.13,7.4,9.64,9.64,0,0,1-1.6,5.13,33.33,33.33,0,0,0-3.16,6.17c-.79,2.43-2.71,10.41-2.88,11s-2-.94-2.51-1.44c-4-1.39-9.73-7-9.73-7l-1.24.1a12.43,12.43,0,0,0,.77,1,40.65,40.65,0,0,0,7.27,6.07l.06,0c.36.24.73.48,1.12.71.55.34,1.13.69,1.75,1l1.16.63.23.12q.78.41,1.62.78S330.33,91.36,331.36,90.23Z"/><path class="cls-5" d="M332.53,72.48h0a2.82,2.82,0,0,0,.8-.54C332.82,72.07,332.59,72.25,332.53,72.48Z"/><path class="cls-2" d="M334.47,65.7c-.38,1.44,0,1.85.75,1.93a3.41,3.41,0,0,1,.71-.88c1.6-1.44,3.94-2.86,3.73-5.11a2.18,2.18,0,0,0-1-1.78,6,6,0,0,0-.88,1.48C337.32,62.37,335,63.67,334.47,65.7Z"/><path d="M434.57,90.31c-2-.73-4.05-1.46-6.18-2.15a126.73,126.73,0,0,0-24.92-5.56s-13.64-2.83-20.2-7c-6.4-4-15.58-11.29-25.36-16.6A61.26,61.26,0,0,0,346.06,54s-21.94-9.37-35.75-9.83c0,0-3.83,10-4.36,11.82,0,.06,0,.14-.05.18l.18.12h0c.62.41,2.66,1.89,2.38,3.34,0,0-5.57,19.75-2.21,31.38a13.24,13.24,0,0,0,2.05,4.74l.62.92.12.16c.43.59.92,1.21,1.48,1.84l.16.18c.58.65,1.24,1.31,2,2l.18.16c.76.69,1.6,1.39,2.54,2.09l.23.17c.47.34.95.68,1.47,1a52.51,52.51,0,0,0,8.64,4.62s11.47,5.85,23.09,4.12c.48-.07.95-.15,1.42-.25a24.65,24.65,0,0,0,4.49-1.37l1.08-.48a24.38,24.38,0,0,0,2.34-1.28,55.19,55.19,0,0,0,8-5.68,57.46,57.46,0,0,0,10.33-11.23s2.77-3.58,6.61-2.43l.29,0a4.55,4.55,0,0,1,3.45,4.15,7.84,7.84,0,0,1,.09,1.13c.05,2.61.11,5.34.19,7.77.06,2.12.14,4,.21,5.36,0,.07,0,.16,0,.23l.05.3c.27,1.64,1.72,10.17,3.25,13.59a38.1,38.1,0,0,0,4.1,8l.06.1.13.18A40.19,40.19,0,0,0,408,142.49a72.45,72.45,0,0,0,11.37,5.19s8.53,2.52,12.41,1.66a25.34,25.34,0,0,0,18.82-10.83s6.86-8.47,9.85-15.13a5.58,5.58,0,0,1,6.58-2.44l4.32-11.4-.15-.12-.07,0-.17-.14-.09-.07-.27-.22a78.89,78.89,0,0,0-12.78-8.31A190,190,0,0,0,434.57,90.31ZM313.46,53.46c-3.57-1.61-2.75-3.16-2.75-3.16s1-1.23,4.5,0,2.92,2.58,2.79,3S317,55.07,313.46,53.46Zm58.25,35.33a21,21,0,0,1-3.7,6.43c-15.27,21.13-34.07,12.64-34.07,12.64a73.81,73.81,0,0,1-9-4l-.23-.12-1.16-.63c-.62-.34-1.2-.69-1.75-1-.39-.23-.76-.47-1.12-.71l-.06,0a33.54,33.54,0,0,1-7.27-6.07,12.43,12.43,0,0,1-.77-1c-.18-.28-.32-.58-.48-.87-4.58-8.36-.86-20.63-.86-20.63,3.51-17.13,15.15-18.32,15.15-18.32,7.26-2.19,21.93,4.45,21.93,4.45,2.15.9,4.09,1.78,5.86,2.65,1.17.57,2.27,1.14,3.29,1.7q1.17.63,2.22,1.26c1.55.92,2.9,1.8,4.07,2.64,1,.74,1.91,1.45,2.68,2.11a25.06,25.06,0,0,1,2.53,2.5,14.15,14.15,0,0,1,1.92,2.77,4.71,4.71,0,0,1,.49,1.34A17,17,0,0,1,371.71,88.79Zm87.5,21s1-1.23,4.5,0,2.91,2.58,2.79,3-1,1.78-4.55.17S459.21,109.78,459.21,109.78Zm-4.84,9.83c-1.1,5.26-4,10.06-7.21,14.29l0,.06v0l-.1.15,0,.06-.16.26,0,.05-.27.41-.36.49,0,0-.39.51-.07.09c-.14.18-.29.37-.46.57l0,0c-.28.33-.58.68-.92,1s-.69.72-1.08,1.09l-.1.09c-.24.22-.48.44-.74.66l-.09.08a22.61,22.61,0,0,1-2.92,2.11l-.17.1c-.31.18-.63.36-1,.53l-.18.1c-.38.19-.78.38-1.18.55v0c-4.2,1.8-9.64,2.41-16.37-.34a39.05,39.05,0,0,1-9.12-3.47l-.48-.25c-.85-.46-1.72-1-2.59-1.54-.33-.21-.65-.4-1-.62A33.41,33.41,0,0,1,394,119.7a32.74,32.74,0,0,1-.95-3.35,13.91,13.91,0,0,1-.49-1.88,27.87,27.87,0,0,1,3.27-18.92,16.68,16.68,0,0,1,4.46-5.36,13.3,13.3,0,0,1,8.53-2.65c3.55,0,7,1.08,9.82,1.74,4.4,1,12.09,4.35,17.3,6.7,2.43,1.1,4.32,2,5.09,2.35a33.45,33.45,0,0,1,7.84,5.34,20.92,20.92,0,0,1,4.15,4.85,13.3,13.3,0,0,1,1.61,5.21A19.1,19.1,0,0,1,454.37,119.61Z"/><path class="cls-6" d="M450.4,120.4a3.92,3.92,0,0,1,2.55-2.78,13.52,13.52,0,0,1,.24-1.35l.28-1.54a3.48,3.48,0,0,0,0-.64l.1-.06,0-.07a15.39,15.39,0,0,0-2.32,2.25c-1.47,2.49-3.05,4.09-2.4,7.4,0,0-.25,2.33-.44,3.63l.35-.46a16.41,16.41,0,0,1,1.52-2C449.43,124.26,449.86,122.62,450.4,120.4Z"/><path class="cls-5" d="M450.4,120.4c-.54,2.22-1,3.86-.08,4.37a12.19,12.19,0,0,0,2.63-7.15A3.92,3.92,0,0,0,450.4,120.4Z"/><path class="cls-2" d="M453.59,114l-.1.06a3.48,3.48,0,0,1,0,.64,15,15,0,0,1-.28,1.54,13.52,13.52,0,0,0-.24,1.35,12.19,12.19,0,0,1-2.63,7.15,16.41,16.41,0,0,0-1.52,2c-.08.13-.17.26-.24.39-.71,2.17-1.87,6.22-2.18,6.86a3.44,3.44,0,0,0-2.1,1.08c-.36.56-.8-.11-1.51-.24-.17.52-1,2.3-4.47,3.54l-.14.42c-.68,2.11-1.46,3.48-1.34,4.16v0c.4-.17.8-.36,1.18-.55l.18-.1c.33-.17.65-.35,1-.53l.17-.1a23.33,23.33,0,0,0,2.92-2.11l.09-.08c.26-.22.5-.44.74-.66l.1-.09c.39-.37.75-.73,1.08-1.09s.64-.7.92-1l0,0c.17-.2.32-.39.46-.57l.07-.09.39-.51,0,0,.36-.49.27-.41,0-.05.16-.26,0-.06.1-.15v0l0-.06c3.22-4.23,6.11-9,7.21-14.29a19.1,19.1,0,0,0,.29-5.88l0-.21A9.88,9.88,0,0,0,453.59,114Z"/><path class="cls-6" d="M442.77,134.87a1.66,1.66,0,0,0-1.47.62c-1.56,1.56-2.19.72-3,2.92C441.77,137.17,442.6,135.39,442.77,134.87Z"/><path class="cls-4" d="M318,53.29c.13-.41.72-1.76-2.79-3s-4.5,0-4.5,0-.82,1.55,2.75,3.16S317.88,53.71,318,53.29Z"/><path class="cls-4" d="M462,112.94c3.57,1.61,4.42.25,4.55-.17s.71-1.76-2.79-3-4.5,0-4.5,0S458.38,111.33,462,112.94Z"/><path class="cls-4" d="M68.28,111.37H39.52v-8.83q0-6.18-1.11-7.87A4,4,0,0,0,34.74,93a4.67,4.67,0,0,0-4.23,2.28q-1.44,2.28-1.44,6.92c0,4,.54,7,1.61,9s4,4.44,8.76,7.28q20.67,12.27,26,20.14T70.85,164q0,12.72-3,18.75T56.36,192.83a45.56,45.56,0,0,1-19.86,4.08q-12.43,0-21.22-4.71t-11.51-12q-2.71-7.28-2.72-20.67v-7.79H29.81v14.49q0,6.69,1.21,8.6c.81,1.28,2.24,1.91,4.3,1.91a5,5,0,0,0,4.6-2.42q1.52-2.43,1.51-7.21,0-10.51-2.87-13.76T24.07,142.55q-11.55-7.65-15.3-11.1a26,26,0,0,1-6.21-9.57Q.09,115.79.09,106.29q0-13.68,3.5-20t11.29-9.9q7.78-3.56,18.83-3.56,12.06,0,20.55,3.89t11.26,9.82q2.76,5.92,2.76,20.12Z"/><path class="cls-4" d="M148,75.33V194.41H117v-50h-9.27v50h-31V75.33h31v42.58H117V75.33Z"/><path class="cls-4" d="M252.2,75.33V194.41H225.13l0-80.4-10.77,80.4h-19.2l-11.36-78.56,0,78.56H156.66V75.33h40.06q1.78,10.74,3.68,25.31l4.4,30.29,7.11-55.6Z"/><path class="cls-4" d="M291.83,75.33v95.25h18.83v23.83h-49.8V75.33Z"/><path class="cls-4" d="M15.3,223.47v5H12v-5.08A7.23,7.23,0,0,1,9.69,223v1H6.38v-6.33H9.69v1.69a9.15,9.15,0,0,0,3.63.72c.9,0,4.29-.15,4.29-2a1.56,1.56,0,0,0-.43-1.11c-1-.87-2.52-1.08-3.82-1.44-4.07-1.19-6.84-1.91-6.84-5.65,0-4,3.13-5.26,5.44-5.58v-3.53H15.3v3.56A6,6,0,0,1,17,205v-1.08h3.28v6.3H17v-1.72a8.64,8.64,0,0,0-3.56-.83c-1.05,0-3.64.29-3.64,2.16a1.74,1.74,0,0,0,.72,1.4,10,10,0,0,0,3.31,1.26c3.57,1,7,1.91,7,5.58C20.88,222.42,16.56,223.21,15.3,223.47Z"/><path class="cls-4" d="M36.36,227.14c-3.88-5.87-4.6-10.91-4.6-13,0-4.36,2.08-9.4,4.75-13.21h3.2c-1.12,1.94-1.44,2.7-2.34,4.42a21.56,21.56,0,0,0-2,8.75c0,5.18,2.55,9.86,4.39,13.07Z"/><path class="cls-4" d="M53.75,224.47a14.53,14.53,0,0,1-5.22-1v1H45.22v-6.76h3.31v2.52a14.72,14.72,0,0,0,5,.9c1.91,0,4.18-.62,4.18-1.84a1,1,0,0,0-.51-1c-1.11-.61-2.7-.43-4-.54-2.52-.22-7.56-.58-7.56-4.93,0-3.57,3.6-4.93,6.73-4.93a13.08,13.08,0,0,1,4.53.82v-.82h3.32v6.26H57v-2a10.24,10.24,0,0,0-4.24-.9c-.8,0-3.85.18-3.85,1.66s2.41,1.55,3.27,1.62l4.5.36A4.39,4.39,0,0,1,61,219.29C61,222.46,57.75,224.47,53.75,224.47Z"/><path class="cls-4" d="M74.23,224v-3.35H77v-7.05a2.08,2.08,0,0,0-2.3-2.38,9.4,9.4,0,0,0-5.3,2.09v7.34h2.7V224H63.29v-3.35h2.77V205H63.29v-3.35h6.08v7.95A10.56,10.56,0,0,1,74.7,208c3.64,0,4.75,2.2,5,2.67a7.62,7.62,0,0,1,.61,3.27v6.8h2.77V224Z"/><path class="cls-4" d="M93,224.47c-5.9,0-8.92-3.92-8.92-8.17,0-5.54,4.71-8.35,8.85-8.35,4.54,0,8.32,3,8.32,7.38,0,.76-.07,2-.11,2.38H87.38c.17,1.22,1.33,3.45,5.57,3.45a16.47,16.47,0,0,0,7.35-2l1.51,2.74A18,18,0,0,1,93,224.47Zm4.86-10.65c-.93-2-3.09-2.52-5.11-2.52s-4.35,1-5.07,3.06H98Z"/><path class="cls-4" d="M104.76,224v-3.35h5.94V205H105v-3.35h9v19h6V224Z"/><path class="cls-4" d="M124.56,224v-3.35h5.94V205h-5.69v-3.35h9v19h6V224Z"/><path class="cls-4" d="M177.66,224V212.67a1.45,1.45,0,0,0-1.51-1.37,3.19,3.19,0,0,0-2.45,1.48v7.91h2.16V224h-5.47v-10.9a1.63,1.63,0,0,0-1.62-1.84,3.71,3.71,0,0,0-2.34,1.19v8.2h2.81V224h-8.89v-3.35h2.77v-8.92h-2.77v-3.35h6.08v.79a3.69,3.69,0,0,1,2.88-1.26,3.54,3.54,0,0,1,3.1,1.73,5.21,5.21,0,0,1,3.88-1.73,4.58,4.58,0,0,1,4.68,4.86v7.88H183V224Z"/><path class="cls-4" d="M195,224v-1.69c-.54.32-1.62,1-1.62,1a9.45,9.45,0,0,1-4.39,1.11c-4,0-6.2-2.84-6.2-5.18,0-.68.33-5.62,8.32-5.62a33.43,33.43,0,0,1,3.89.26v-.43c0-2.16-2.67-2.24-3.53-2.24a16.87,16.87,0,0,0-6.19,1.41l-1.3-2.88a20.44,20.44,0,0,1,7.63-1.87c.72,0,4.75,0,6.09,2.88a9.43,9.43,0,0,1,.54,3.92v6H201V224Zm0-6.77c-1-.07-2.38-.28-4.39-.28-1.84,0-4.5.57-4.5,2.34,0,1.15,1.4,1.8,2.84,1.8a9,9,0,0,0,6-2.78Z"/><path class="cls-4" d="M217.8,212.52c-.11-.9-.25-1.26-1.15-1.26a5.31,5.31,0,0,0-2.38.8A26.94,26.94,0,0,0,210.2,215v5.72h6.56V224H203v-3.35h3.85v-8.92H203v-3.35h7.23v2.52c1.8-1.44,4-3,6.45-3s3.56,1.33,3.88,2.23A5.18,5.18,0,0,1,221,212Z"/><path class="cls-4" d="M232.49,224v-3.35h.93a34.42,34.42,0,0,0-4.14-3.88l-1.18.82V224h-6v-3.35h2.69V205h-2.73v-3.35h6v12.24l3.16-2.2h-.68v-3.35h9.22v3.35h-3.64L231.7,215a50,50,0,0,1,5.79,5.65h3.64V224Z"/><path class="cls-4" d="M254.63,224v-1.11a8.48,8.48,0,0,1-4.75,1.54c-2.27,0-5-1-5.84-3.34a8.34,8.34,0,0,1-.36-2.78v-6.58h-2.8v-3.35H247v10c0,.82.11,2.77,3,2.77a6.5,6.5,0,0,0,4.68-2.2v-7.23h-2.74v-3.35h6.05v12.27h2.77V224Z"/><path class="cls-4" d="M271.8,224.47a8.89,8.89,0,0,1-5.36-1.8v4.61h5.11v3.35H260.39v-3.35h2.73V211.8h-2.8v-3.34h6.12v1.26a8.3,8.3,0,1,1,5.36,14.75Zm-.18-13.17c-1.44,0-5.33.72-5.33,4.86s3.71,5,5.29,5a5,5,0,0,0,5.08-5A4.75,4.75,0,0,0,271.62,211.3Z"/><path class="cls-4" d="M302.76,224v-3.35h5.94V205H303v-3.35h9v19h6V224Z"/><path class="cls-4" d="M333.57,224v-1.69c-.54.32-1.62,1-1.62,1a9.38,9.38,0,0,1-4.39,1.11c-4,0-6.19-2.84-6.19-5.18,0-.68.33-5.62,8.32-5.62a33.12,33.12,0,0,1,3.88.26v-.43c0-2.16-2.66-2.24-3.52-2.24a16.87,16.87,0,0,0-6.19,1.41l-1.3-2.88a20.34,20.34,0,0,1,7.63-1.87c.72,0,4.75,0,6.08,2.88a9.43,9.43,0,0,1,.54,3.92v6h2.78V224Zm0-6.77c-1-.07-2.37-.28-4.39-.28-1.83,0-4.5.57-4.5,2.34,0,1.15,1.41,1.8,2.85,1.8a9,9,0,0,0,6-2.78Z"/><path class="cls-4" d="M351.07,224v-3.35h2.74v-6.91c0-1.4-.22-2.52-2.63-2.52a8.49,8.49,0,0,0-5.11,2v7.45h2.8V224H340v-3.35h2.77v-8.92h-2.84v-3.35h6.16v1.15A10.25,10.25,0,0,1,351.5,208a5.53,5.53,0,0,1,4.72,2,6,6,0,0,1,.9,3.06v7.66h2.7V224Z"/><path class="cls-4" d="M376.92,211.73v11.52c0,3.89-.76,7.42-7.42,7.42a37,37,0,0,1-8.21-1.26l.8-3.39a29.76,29.76,0,0,0,7.3,1.26c4.14,0,4.25-1.69,4.25-3.81v-1.41a8.13,8.13,0,0,1-5,1.59c-5.08,0-8.61-3.39-8.61-7.82s3.57-7.88,8.72-7.88a7.7,7.7,0,0,1,4.89,1.55v-1.12h6.05v3.35Zm-8.32-.43c-2.81,0-5.18,1.84-5.18,4.46s2.55,4.54,5.15,4.54c3.06,0,5.07-1.69,5.07-4.43S371.52,211.3,368.6,211.3Z"/><path class="cls-4" d="M393.22,224v-1.11a8.48,8.48,0,0,1-4.75,1.54c-2.26,0-5-1-5.83-3.34a8.34,8.34,0,0,1-.36-2.78v-6.58h-2.81v-3.35h6.09v10c0,.82.11,2.77,3,2.77a6.46,6.46,0,0,0,4.67-2.2v-7.23h-2.73v-3.35h6.05v12.27h2.77V224Z"/><path class="cls-4" d="M412.77,224v-1.69c-.54.32-1.62,1-1.62,1a9.45,9.45,0,0,1-4.39,1.11c-4,0-6.19-2.84-6.19-5.18,0-.68.32-5.62,8.31-5.62a33.29,33.29,0,0,1,3.89.26v-.43c0-2.16-2.66-2.24-3.53-2.24a16.91,16.91,0,0,0-6.19,1.41l-1.29-2.88a20.34,20.34,0,0,1,7.63-1.87c.72,0,4.75,0,6.08,2.88a9.43,9.43,0,0,1,.54,3.92v6h2.77V224Zm0-6.77c-1-.07-2.37-.28-4.39-.28-1.83,0-4.5.57-4.5,2.34,0,1.15,1.41,1.8,2.85,1.8a9,9,0,0,0,6-2.78Z"/><path class="cls-4" d="M436.32,211.73v11.52c0,3.89-.76,7.42-7.42,7.42a37,37,0,0,1-8.21-1.26l.8-3.39a29.67,29.67,0,0,0,7.3,1.26c4.14,0,4.25-1.69,4.25-3.81v-1.41a8.13,8.13,0,0,1-5,1.59c-5.08,0-8.61-3.39-8.61-7.82S423,208,428.14,208a7.73,7.73,0,0,1,4.9,1.55v-1.12h6v3.35ZM428,211.3c-2.81,0-5.18,1.84-5.18,4.46s2.55,4.54,5.14,4.54c3.06,0,5.08-1.69,5.08-4.43S430.92,211.3,428,211.3Z"/><path class="cls-4" d="M449.35,224.47c-5.9,0-8.93-3.92-8.93-8.17,0-5.54,4.72-8.35,8.86-8.35,4.53,0,8.31,3,8.31,7.38,0,.76-.07,2-.11,2.38H443.77c.18,1.22,1.33,3.45,5.58,3.45a16.39,16.39,0,0,0,7.34-2l1.51,2.74A17.91,17.91,0,0,1,449.35,224.47Zm4.86-10.65c-.94-2-3.1-2.52-5.11-2.52s-4.36,1-5.08,3.06h10.33Z"/><path class="cls-4" d="M465.3,227.14h-3.21c1.12-1.95,1.44-2.7,2.34-4.43a21.36,21.36,0,0,0,2.05-8.75c0-5.18-2.55-9.86-4.39-13.06h3.35c3.89,5.86,4.61,10.9,4.61,13C470.05,218.28,468,223.32,465.3,227.14Z"/></g></g></svg>