<svg viewBox="0 0 472.83 230.67" xmlns="http://www.w3.org/2000/svg"><path d="m333.66 71.4a3.38 3.38 0 0 0 .29-.63c.48-1.36-.46-1.44-1.58-2s-1.68-.77-.81-2.29 3.8-4 3.88-5.2-2.93-3.21-2.83-3.8a6.32 6.32 0 0 0 0-1.45s-13.45-1.5-18 12.19-3.12 21.58-.83 26c0 0 5.77 5.64 9.74 7 0 0 5.26-13.21 6.22-15s1.86-2.11 1.16-4.79-1.93-6.33-1.16-7.33.54-.65 1.79-1.17c.37-.15.69-.28 1-.42.07-.23.3-.41.81-.54a2.87 2.87 0 0 0 .37-.45.41.41 0 0 1 -.05-.12z" fill="none"/><g fill="#72eef1"><path d="m449.06 36.19c-.26.16-1.44-.31-2.2-.64a3.39 3.39 0 0 0 -.62.7c-.88 1.45 1.83 3.52 2.23 2.47s1.73-.65 1.73-.65c3 .81 1.9-.33 3.24-.92 1.13-.49 3.42 1.45 3.65 2.64l.53-.39c.52.77.84 1.29.84 1.29a29 29 0 0 0 -5.21-6.33 2.77 2.77 0 0 1 -3.22.83 3.67 3.67 0 0 0 .43.09 3 3 0 0 1 -1.4.91z"/><path d="m431.33 15.39-.05-.11a3.21 3.21 0 0 1 -.49.76c-1.31 2.58 1.65 2.3 1.65 2.3.6-2.88 3.12-1.4 3.12-1.4.37-.62 1.64-1 3.64.19s1.11 4.38 1.11 4.38 2.48-.16 3.35 1.45a2.79 2.79 0 0 1 .34 1.56 1.5 1.5 0 0 1 .93-1 23.11 23.11 0 0 0 -2.86-3.69s-2.31-4-4.12-5.19c0 0-3.17-1.13-4.93 0l-.16-.22a4.79 4.79 0 0 1 -1.53.97z"/><path d="m442.91 27a10 10 0 0 1 -2.65 2.53c-.76.41-2.57-.14-2 1.13s1.36.86 4.65-.5a6.19 6.19 0 0 1 6 .94s-1-2.37-2.51-2.73l-1.9-.57.07-.06a2.8 2.8 0 0 1 -1.24.23c-.76-.19-.61-.68-.42-.97z"/><path d="m344.79 194 .54.26.38-.1z"/><path d="m350.69 196.64-.81-.35-2.39-1c1 .46 2.06.92 3.2 1.4a72.79 72.79 0 0 0 15.31 3.6 72.79 72.79 0 0 1 -15.31-3.65z"/><path d="m468.37 122.67a5.06 5.06 0 0 0 -5.26.37 5.06 5.06 0 0 1 5.26-.37l4.46-12.17z"/><path d="m434.77 150.39a18.61 18.61 0 0 0 -3.29 5.25 18.61 18.61 0 0 1 3.29-5.25 1.35 1.35 0 0 1 1.32-.38 1.35 1.35 0 0 0 -1.32.38z"/><path d="m363.51 25.15a2.4 2.4 0 0 0 -1.46 1.27 2.43 2.43 0 0 1 1.46-1.27z"/><path d="m414 6.5a3.58 3.58 0 0 0 0 1.5c2.72.55 2.34 1.51 2.34 1.51l-.9 2.71 1.46.52a7.29 7.29 0 0 0 .81-2.09c0-.71 1-1.42 1-1.42a1.58 1.58 0 0 1 1-1.24l3.69 1.2s-.24-1.6 2.86-1.12 2.48 2.54 2.48 2.54a5.18 5.18 0 0 1 2.56 2.11l.27-.18a23.15 23.15 0 0 0 -3.71-4.14s.76-1.93-3.58-2.78a10.91 10.91 0 0 0 -3.1 1c-1.21.72-1.8-.9-3.57.19a1 1 0 0 1 -1.26 0 8 8 0 0 1 -2.35-.31z"/><path d="m323 108.89a7 7 0 0 0 0 2.81 7 7 0 0 1 0 4.18c-.56 1.76-1.54 1.54-1.66 3.14a23.19 23.19 0 0 1 -.46 4.18c-.39 1.8-1.19 4.32-.43 6a30.84 30.84 0 0 0 .16 4.55c.26 1.31.54 5.71 1.2 6.53s1.47 9.26 1.71 10.17 1.36 6.21.91 9.42a30.06 30.06 0 0 0 .73 4.94 14.56 14.56 0 0 1 1 2.34v.13c0 .89.26 5.35 1.77 7.27a32.58 32.58 0 0 0 2 3.82 21.78 21.78 0 0 1 -2.94-10.8 1.85 1.85 0 0 1 0-.25v-.07s0-.09 0-.12v-.06a1.18 1.18 0 0 1 -1.08-.59c-.43-.67-.41-3.73-.41-3.73.62-3-.06-10.9-.5-13s-1-5.07-1.77-8.81-.79-4.28-1.48-7.37.53-10.47.53-10.47c-.63-2.7.28-2.43 1.82-4.58s.37-4.21-.19-6.27 1.73-3.35 1.73-3.35a53.06 53.06 0 0 1 -8.65-4.62l-.78.78c2.14 1.1 4.15 1.9 5.79 2.59s1.09 0 1 1.24z"/><path d="m368.78 17.53c-.82 2.48.93 3.3 1.41 4a2.79 2.79 0 0 1 .53-3.26c2-2.38 5.52-.42 5.52-.42 1.72-.92 2.34.62 2.32 1a4.94 4.94 0 0 0 .28 1.17c1.52-.27 2.87-1.76 4.25-2.15s.69-1.41 1.43-3.26 1.32-.24 2.63-.38.67-1.33-.27-1.8a1 1 0 0 1 .46-1.84c1 .11.5.15.38-1s.4-1 .87-2 4.13-.57 4.13-.57c3.09-1.32 4.26.47 4.26.47a2.08 2.08 0 0 0 1.42 1.6c1.29.48 1.06-.85 1.06-.85 2.26-.94 4 .39 3.72 1.11s-1.43 2.36.77 2.22 2.73-3.69 3.18-4.9a23.72 23.72 0 0 1 1.17-3c.34-.53 1-.52 2.71-1.26a2.15 2.15 0 0 1 2.6.33l.13.08a2.52 2.52 0 0 1 .5-.61 4.27 4.27 0 0 1 .09.51 2.9 2.9 0 0 0 -2.59-2.72c-1.7-.13-2.89.77-3.93 1.3a5.36 5.36 0 0 1 -.54.52c-.91.74-.24.37-.82 1.25s-1.83 5.44-2.53 5.93-1.14-2.17-1.14-2.17-3.1-2.28-5.21.24c0 0-1.71-4.21-5.81-1.93 0 0-2.25-1.21-5 .84a2.69 2.69 0 0 0 -.57 0 8 8 0 0 0 .2 1.42c.13.29.3 1.29 0 1.24s-.84-.22-1 .64-.13 1 .44 1.29.15 1.68-.07 1.58a2.5 2.5 0 0 1 -2.79-.75 2.54 2.54 0 0 0 .58 1.13 5.22 5.22 0 0 0 -1 .33 4.08 4.08 0 0 1 -2.29 3.91 1.34 1.34 0 0 1 -.84 0 1.33 1.33 0 0 1 -1.57.73s-2.85-2.84-7.85-1.74l.52-.09c-.29.92-1.08-.15-1.74 1.86z"/><path d="m305.18 51.78c-.15 1-1 2.27-.61 2.87s1.25.19 1.25 1.06v.25c.53-1.86 4.35-11.82 4.35-11.82 13.83.46 35.83 9.86 35.83 9.86l-.07-.65-4.55-3.44s-.7-1.29.7-1.14 3.78.6 3.78.6.91-.63.46-.94a6.19 6.19 0 0 1 -1.07-3c0-.81-.33-3.7 0-4.69s2.17-1.24 2.17-1.24l1.71.88.55-1.82c.3-1 2.25-1.48 2.16-.88a1.24 1.24 0 0 0 1.35 1.49c1.17 0 .23-.48.69-2.32s2.53-2.12 2.68-1.71.43.66 1.45 1.15 2.19-1.59 1.28-1.87-1 .25-.7-.66a22 22 0 0 0 .42-3.2l-1.01-.56c.39-1.59 4.75-.82 4.75-.82.75-.68 1.81.27 3.22.06s.14-1.66.14-1.66c.38-1.87 2.69-1.45 2.69-1.45s.43.67 1.78-.54.59-2.26-.42-4l.18.31c.25.52 0 .88-1.71 1.89a1.3 1.3 0 0 1 -1.54-.14 3.28 3.28 0 0 1 -.39.72c-.56.83-1.29.77-2.06.74h.36c.19.36 1 1.95-.07 1.95a6.88 6.88 0 0 1 -2.9-.6l-.21.39a16.14 16.14 0 0 0 -5.4 1 2.32 2.32 0 0 1 .85 2.16c-.46 1.75-.71 1.75-.39 2.5s.81 1.4 0 1.25a4.32 4.32 0 0 1 -1.88-.76.13.13 0 0 1 0 .06l-2.26 1.13c.3 1.29.66 3.41-.36 2.87a3.83 3.83 0 0 1 -1.85-1.8h.08c-.79.38-1.63.77-2.47 1.15-.07.64-.19 1.47-.4 1.51a1.67 1.67 0 0 1 -1.28-.76c-1.06.46-2.07.87-3 1.19a9.7 9.7 0 0 1 .57 3.19 3.41 3.41 0 0 0 -.05 2.09c.22.72.72 1.46.62 1.93s.53 1.5.06 1.48a22.91 22.91 0 0 1 -2.92-.8s-2.24 1.07-3.66 1.8l1.22-.61c.82.44 1.19.56 1.53 1.14a2.14 2.14 0 0 1 .18 1.44l-4.01-1.39s-16-5.54-26-6.27a1.85 1.85 0 0 0 -2.45 1s-3.22 7.46-3.37 8.43z"/><path d="m459.09 99.78a14.67 14.67 0 0 1 -1.37.85 78.21 78.21 0 0 1 12.77 8.31l.21-.31s-.6-2.8-10.12-7.36l-1.49-1.46z"/><path d="m464.55 97.31c-.1 1.07-2.66 3-3.62 3.69.96-.69 3.52-2.62 3.62-3.69z"/><path d="m461.56 70.1c-2.33-.61-3.08.06-2.76 1.42s2.18.83 2.18.83c2.45-1 3 .62 3.24 1.79s-1 3.93-1.72 3.62l.91 1.07a3.33 3.33 0 0 1 2.75-1c.66-1.52 1.19-1.42 1.55-1l.29-.2-.24-.26c-.2-.24-1-2.45-2.11-2s-.91 1.53-1.13.47a16.17 16.17 0 0 0 -1.12-2.84 6.24 6.24 0 0 1 -.72-1.56z"/><path d="m459.13 59.29c-.46 1.84 1 2.1 1 2.1a4.08 4.08 0 0 1 1.67 1.54l.36-.21.06.05c-1.51-1.06-1.59-2-1.33-2.83-.44-.26-1.12-.68-1.63-1-.04.06-.1.23-.13.35z"/><path d="m459.32 58.74c.4-1.18 1.08-2.37 1.39-3.37-.31 1-.99 2.19-1.39 3.37z"/><path d="m457.35 49.93c.16.9 2.06 2.27 3 3.42l.65-.35c-.88-1.25-2-2.21-2.5-3.37-.34-.8-.95-1.8-1.45-2.82l-1.53-.12a25.73 25.73 0 0 1 1.83 3.24z"/><path d="m460.5 90.43a16.14 16.14 0 0 1 -2.07 1.78l3 .73.75.2c-.22-.34-.44-.67-.64-.94l-1.11-1.57z"/><path d="m306 56.26-.17-.12z"/><path d="m443.45 26.16c-.12.21-.26.41-.39.6a3.92 3.92 0 0 0 .39-.6z"/><path d="m333.63 183.64a.57.57 0 0 1 -.06-.09c-.35-.38-.65-.77-1-1.15q.63.82 1.35 1.68c-.13-.16-.21-.27-.27-.36z"/><path d="m332.6 182.39.01.01z"/><path d="m306.15 91c-3.35-11.63 2.22-31.38 2.22-31.38.28-1.45-1.76-2.93-2.38-3.34.34.53 1.07.9 1.07 1.34 0 0-.1 1-.89 4.31s-1.45 6.64-1.45 6.64-3.55 17.16 1.15 22.06a12.57 12.57 0 0 0 2.34 5.11 13.41 13.41 0 0 1 -2.06-4.74z"/><path d="m346.4 194a54.49 54.49 0 0 1 -6.14-4c-.41-.31-.79-.6-1.16-.9h-.06c-.35-.29-.68-.56-1-.83l-.08-.06-.76-.67a38.4 38.4 0 0 0 9.19 6.5l-.65.15 1.44.26-.75-.42z"/><path d="m444.94 23.52c.65 1.1.61 1.57.55 1.74.06-.16.1-.63-.55-1.74z"/></g><path d="m448.8 103.67a33 33 0 0 0 -7.8-5.34c-.76-.36-2.65-1.25-5.08-2.35a3.16 3.16 0 0 1 -.64 2.85s-1.09 4.38-1.53 4.62a2.22 2.22 0 0 1 -1.63.18c-.54-.16-3.31-1.89-3.74-1.2s-.32 2.07-1.1.94-.9-1.24-.95-2.07-.27-1.35-1.61-1.6-2-.08-2.18-1-4.86-4.44-7.37-5.27-10.26-3.43-16.75 1.23l1.29.68s6.38-3.83 11.9-1.35a6.81 6.81 0 0 0 -3.24 4.1c-.8 2.9.53 3.44 2.72 4.62s5.31 1.44 6.21-1a11.75 11.75 0 0 0 .55-5.06c0-.81 3.73 2.24 2.56 7.12a1.76 1.76 0 0 0 1.13 1.46c1 .3.24 1-.37 1s-.46 1.28.95 1.56l.11 2.12a2.11 2.11 0 0 0 2.31-.5c.92-1.07-.51-.53-.21-1s-.11-1.61 1.07-1.33.91 1 2 .37 1-1.2 1-1.2l3.39.64-.39 1.3 1.34.26s.71-1.88 3.22-.53c0 0 1.66.94 0 2.6 0 0-.95.69-.74 1a4.47 4.47 0 0 1 0 2.15 17.6 17.6 0 0 1 -1.08 2.59l1 .67a4.86 4.86 0 0 1 -1.3 3.35s-2.1 4.51-2.92 5.76l.71 2.6-.42 1.15a4.6 4.6 0 0 1 -1.94 0s-1.29 2.82-3.39 3.84l-1.88 4.59a2.21 2.21 0 0 1 -2.24-1.5 1.61 1.61 0 0 0 -2.07.43c-1 1-4.31 4-8.4 2a39.08 39.08 0 0 0 9.11 3.47c6.73 2.75 12.18 2.14 16.37.34-.11-.68.67-2.05 1.35-4.16.05-.15.09-.29.14-.42.81-2.2 1.43-1.36 3-2.92a1.67 1.67 0 0 1 1.47-.62c.71.13 1.16.8 1.52.24a3.42 3.42 0 0 1 2.09-1.08c.32-.64 1.47-4.69 2.18-6.86l.24-.39-.34.46c.19-1.3.44-3.63.44-3.63-.66-3.31.92-4.91 2.4-7.4a15.32 15.32 0 0 1 2.31-2.25v.07a9.78 9.78 0 0 1 1-.51v.21a13.15 13.15 0 0 0 -1.62-5.21 20.68 20.68 0 0 0 -4.15-4.82zm-36-6.2a1 1 0 1 1 1.29-.7 1 1 0 0 1 -1.32.7z"/><path d="m329.9 178.41a21.79 21.79 0 0 1 -3-10.81 21.78 21.78 0 0 0 3 10.81z" fill="#1e1a17"/><path d="m334.32 184.53.05.06.45.52c.37.42.83.91 1.39 1.45-.82-.83-1.57-1.66-2.27-2.48z" fill="#1e1a17"/><path d="m320.51 101.35a40.47 40.47 0 0 1 -7.26-6.07 33.4 33.4 0 0 0 7.26 6.07z" fill="#1e1a17"/><path d="m366.34 69.29c-.77-.66-1.66-1.37-2.69-2.11a8.81 8.81 0 0 0 1.33 1.1c.42.28.88.63 1.36 1.01z" fill="#1e1a17"/><path d="m357.24 105.3a23.89 23.89 0 0 1 -19.45 3.12s-1.2-2.23-1-3a1.34 1.34 0 0 0 -1.3-1.66c-1 0-1.84-.33-1.51-1.42s.22-1.73-.49-1.86-1.71.75-1.63-.79-1-3.21.44-6.67 2.06-3.63 2.91-4.49 1.52-.82 1.71-2.7-.67-2.83 1.08-2.83l.77-2.08 1.55.32s.65-1.68 1.18-1.22a3.86 3.86 0 0 0 2.37.56c.41-.1.95-.16.67.5s-1 1.35.08 1.74.38.72.75 1.5a3.38 3.38 0 0 0 1.63 1.68 12.89 12.89 0 0 0 6.41 3.27l-2.8-1.37.45-1 5.46 1.19s1.39.34.15-1.23c0 0-2.29-.83-2.48-1s-.37-.26.41-.85a11.16 11.16 0 0 0 -1.84-.85 7.58 7.58 0 0 1 -2.46-1.49c-.61-.48-1.74-.67-1.82-.92a2.33 2.33 0 0 1 .32-1.32c.2-.16.37 1 1.86 0 0 0 1.84-4.38 2.86-4.82 1.89-.8 3.39-1.07 4.76.31 0 0-2.22 1.2-2.29 2.15s-.76 3.28 0 4.25c.49.64.43 1.55 2.66 2.07s3.78 1.58 5.67-1a29.66 29.66 0 0 1 1.45-3.6c.35-.42 0 .61 1.65 2.21s1.35 4 2 4.17 1.2.73 1.5.23-1.54-7.4-7.24-10.3-9.74-3.37-13.94-3.06c0 0-3.11.18-2.49-2.62s1.4-9.65 5.56-9.08c.48.07.89.15 1.26.24-1.76-.87-3.7-1.75-5.85-2.65 0 0-14.67-6.64-21.94-4.45 0 0-11.63 1.19-15.14 18.32 0 0-3.72 12.27.86 20.63-4.54-8.9-.14-23.19-.14-23.19 2.9-10.56 9-13.38 9-13.38 5.07-3.54 11.12-3 15.4-1.88a28.26 28.26 0 0 1 5.5 2.05c-.8-.52-4.06-.6-4.27-.6s-.21.33-.33.72c-.17.57-.34 1.27-.34 1.27.31.79 1.07 1 1.72 1.44a2.2 2.2 0 0 1 1 1.78c.22 2.25-2.12 3.67-3.72 5.11a3.48 3.48 0 0 0 -.72.88 1.51 1.51 0 0 0 0 1.63s.62.19 1.27.41a10.81 10.81 0 0 1 1.2.47c.66.33.36.86.13 2.09-.17.91-2 1.65-3 2a1.3 1.3 0 0 0 -.89 1.13c-.14 2.26 1.15 7.44 1.15 7.44-.2 3-3.68 7.46-3.68 7.46-1 1.13-4.81 14.43-4.81 14.43-.55-.25-1.09-.51-1.61-.78a72.46 72.46 0 0 0 9 4s18.79 8.49 34.07-12.64a20.86 20.86 0 0 0 3.69-6.43c-.4.86-.76 1.54-.9 2-.55 1.46-6.72 9.98-13.48 14.46zm4.46-27.3a1 1 0 0 1 .63 1.16.93.93 0 0 1 -1.78-.54.92.92 0 0 1 1.15-.62z"/><path d="m357.37 63.28a10.43 10.43 0 0 0 2.22 1.26q-1.05-.63-2.22-1.26z" fill="#1e1a17"/><path d="m329.91 178.42a27.84 27.84 0 0 0 2.69 4 41.24 41.24 0 0 1 -2.69-4z" fill="#1e1a17"/><path d="m442.14 139.62a22.74 22.74 0 0 1 -2.93 2.11 22.74 22.74 0 0 0 2.93-2.11z" fill="#1e1a17"/><path d="m368.86 71.79a19.69 19.69 0 0 1 1.93 2.77 13.86 13.86 0 0 0 -1.93-2.77z" fill="#1e1a17"/><path d="m408.16 137.39c.88.56 1.75 1.08 2.59 1.54-.25-.15-.5-.31-.75-.49 0 0-.71-.35-1.84-1.05z" fill="#1e1a17"/><path d="m346.38 193.94a55.92 55.92 0 0 1 -6.14-4 54.49 54.49 0 0 0 6.14 4z" fill="#1e1a17"/><path d="m407.9 142.49c.35.25.52.43.43.52a47.81 47.81 0 0 0 -3.74 6.5c-.53 1.26-5.94 4.11-6 3.57s.14-2.2-.53-2.47-2.65-.13-1.95-3.43-2.72-3.13-3-5.08-.37-5.26-2.43-7.08-4.3-2.33-5.43-3.05a8.64 8.64 0 0 1 -2-1.95s-1.16-.87 2.41-1.07 5.31-4.52 5.31-4.52a34.28 34.28 0 0 0 3.69 6.42 38.42 38.42 0 0 1 -4.09-8c-1.53-3.42-3-12-3.25-13.59 1 9.13 3.17 12.73 2.92 13.36s.24 1.19-4.29-.39-4.21-1.12-7.12-1.39-5.42-.36-5.42-.36c-7.41-1.92-9.09-5.26-10.08-6.68s-1.68-.88-2.47-.74-5.26-1.39-6.17-1.69a24.75 24.75 0 0 1 -4.5 1.37c.16.88 1.36 6.61 5.67 8.53a2.44 2.44 0 0 1 -2.2.38 3.52 3.52 0 0 1 -2.8.36s-1.7 2.69-3.2 2a3.91 3.91 0 0 1 -1.83-3.09c-.06-.54-2.09 1.24-3 1.63s-1.79 1.25-2.78 1.33-1.12-.26-1.68.09-2.58 1.91-3.17-.35.91-2 1.17-2.41-.66-2.29 1.85-3.7c0 0-2-2.61-.41-4.6a29 29 0 0 0 11 .13c-11.62 1.73-23.09-4.12-23.09-4.12s-2.28 1.3-1.73 3.35 1.74 4.13.19 6.27-2.45 1.88-1.82 4.58c0 0-1.23 7.38-.53 10.47s.71 3.63 1.48 7.37 1.32 6.7 1.77 8.81 1.12 10.06.5 13c0 0 0 3.06.41 3.73a1.18 1.18 0 0 0 1.08.59s6.88 2.27 7.54 2.38 2.57 1.19 2.61-.47-1.74-3.82-.44-4.27.86-.71 1.65.36 3.74 5.95 4.91 6.72 2.33 1 1.51 2.08-2.12.71-2.11 2.38-1.1 2.74 1.13 6.15a36.28 36.28 0 0 0 3.39 4.78 52.55 52.55 0 0 1 4.22 6.37l.12.22-4-.08-1.08.25.75.42s2.2.83 5.22 1.74l1.31.38.2.05c.39.12.79.22 1.19.33l.36.1 1.09.27.48.12 1 .22.55.12.95.19.58.1.93.15.56.09 1 .1h.47c.47 0 .92.06 1.36.07a18.51 18.51 0 0 0 7.73-.56s2.53-1 4-1.68 11.39-4.05 13.65-8.59c0 0 3.38-1.69 4.28-2s10-3.74 20.53-12.65a57.92 57.92 0 0 0 11.6-13.18s3.48-.48 4.21-5.93a26.16 26.16 0 0 1 2.21-3.75c.63-.62-.93-.82-.93-.82-3.87.86-12.4-1.66-12.4-1.66a72 72 0 0 1 -11.5-5.1zm-66-12.68a10.87 10.87 0 0 1 8.79-3.93c4.12 0 12.63 3.93 13.63 3.86s.51-2.24.6-2.51.29-.73 2.78-.06 3.41 4.31 3.41 4.31 6.12 2 6.92 1.55a5.12 5.12 0 0 1 4.81-.35c2.47 1 2 2.47 2.05 3.6s.7 1.18 2.7 3.2 1.3 1.88 1 3.36-1.92 3.16-3.64.7-4.46-2.31-5.44-2.53-1.61.64-2.93-.2-3.71-1.56-9.38-1.55-7.26-2.17-8.19-3.57a1.71 1.71 0 0 0 -2.26-.68c-2.18 1.29-4.05-1.44-4.05-1.44l-4.44-1.11s.52 0-.35-1.07-2.9.7-4.86.26-1.15-1.84-1.15-1.84zm.66 19.45s-.53-.46-.75.52-.73 2.17-1.51 1.79-.8-.84-.76-1.95a32.67 32.67 0 0 0 -.91-6.69s-.59-2.49 1.13-1.75 3.65 4.75 6.57 6.23.66 1 2 2.47 2.84 4.21 7.78 6.14c0 0 2.31-2.22 3.37.71a18.53 18.53 0 0 0 6 1.2c2.91 0 3.43-.24 3.63-1.67s-2.8-3.83-3.61-5.64c0 0 .48 3.88-1.43 3.53s-2.89-5.05-4.9-5.05c0 0-.69 2.78-3 3 0 0-4.08-1.07-5.22-3.73l-1.36-.71c-1.35-.7-3-2.32-2.88-4.07 0-.26-.34-2.11 1.38-1.38s2.78.69 2.56 2.93c0 0 1.28-2.52 2.78-1.32s1.32 1.59 2.87 1.38 1.66.2 2.31 1.51 0-.38 2-.29 2.37-.93 4.09 0 3 1.33 3.85.63 1.59-.34 2.4.2 1.88.71 2.11 2.42-1.46 3.33-1.06 4.47a6.41 6.41 0 0 1 -1 2c-.53.51 9.1-2 12.64-1.07 0 0 .17 2.15-2.56 4.54s-4.91 5.17-7 5.59-3.08-.15-2.08-1.2 1.67-.85 1.11-1.46-1.56 1.47-2.94 1.58-4.95 4.56-15.26 2.59-11.63-11.63-12.35-17.45zm42.77 18.43c-1.11.71-.65 1.15-2 .6s0 .45-.64 1.15-.59 2.73-1.94 2.48-1.94-.73-2.52-.31-2.15.7-2.39 1.75.52 2 .59 2.79a2.53 2.53 0 0 1 -.62 2c-.57.65-1.91 1.89-2.84 1.76a18.68 18.68 0 0 1 -2.46-.51c-.62-.19-.76.29-1.17.92a1.89 1.89 0 0 1 -2.48 1c-1.58-.47-2.34-1.15-2.86-.18a2.15 2.15 0 0 1 -2.82.94c-1-.53-2.2-1.63-3.09-1.89s-.72-.82-1.75.37-2 2-3.4 1.14-.94-2.37-1.41-3-1-1.42-1.44-.66-1.15 2.34-1.51 1.79a1.13 1.13 0 0 1 -.13-1.31 6.36 6.36 0 0 0 .46-2c-.08-.24-1.29-.91-1.35-.48s.17.43.19 1.11.52 1.27-.55 1.1-1.24-.37-1.17-1.32-.76-2.47.12-2.65.19-.39 1.57.24 2.7 1.19 3.64 1.54.39 1.69 1.64 1.24.17-1.29 2.72-.83 3.26 1.06 6.61.12a18.73 18.73 0 0 0 5.94-2.4c1.82-1.09 2.93-2.55 3.48-1.64s1 .74 1-.08-1-.83.46-2 2.06-1.4 2.39-3.24.77-2.31 2.14-2.42 2.63-.78 2.66-1.14c0 0-1.4-2.81 1.71-3.22a1.45 1.45 0 0 1 2.12-.11c1.37.93.74 1 1.43 2.22s.77.67.57 1.58.21 2.86-.9 3.55z"/><path d="m337.11 187.4.06.06.76.67z" fill="#1e1a17"/><path d="m443 30.13c-3.29 1.36-4 1.76-4.65.5s1.2-.72 2-1.13a10 10 0 0 0 2.56-2.5l.13-.2c.13-.19.27-.39.39-.6a5.17 5.17 0 0 0 .36-.75v-.05a3 3 0 0 0 .18-.84 2.79 2.79 0 0 0 -.34-1.56c-.87-1.61-3.35-1.45-3.35-1.45s.89-3.25-1.11-4.38-3.27-.81-3.64-.19c0 0-2.52-1.48-3.12 1.4 0 0-3 .28-1.65-2.3a3.21 3.21 0 0 0 .49-.76 4.37 4.37 0 0 0 .19-.48.14.14 0 0 1 0-.06 2.62 2.62 0 0 0 -.21-2 5.18 5.18 0 0 0 -2.56-2.11s.62-2.06-2.48-2.54-2.86 1.12-2.86 1.12l-3.64-1.25a1.58 1.58 0 0 0 -1 1.24s-.93.71-1 1.42a7.29 7.29 0 0 1 -.81 2.09l-1.46-.52.9-2.71s.38-1-2.34-1.51a3.58 3.58 0 0 1 0-1.54 3.29 3.29 0 0 1 .12-.5c.4-1 1.25-2.23-.35-3.13l-.13-.08a2.15 2.15 0 0 0 -2.6-.33c-1.75.74-2.37.73-2.71 1.26a23.72 23.72 0 0 0 -1.17 3c-.45 1.21-1 4.75-3.18 4.9s-1.08-1.5-.77-2.22-1.46-2.05-3.72-1.11c0 0 .23 1.33-1.06.85a2.08 2.08 0 0 1 -1.41-1.59s-1.17-1.79-4.26-.47c0 0-3.67-.38-4.13.57s-1 .87-.87 2 .58 1.07-.38 1a1 1 0 0 0 -.46 1.84c.94.47 1.57 1.65.27 1.8s-1.9-1.47-2.63.38 0 2.86-1.43 3.26-2.73 1.88-4.25 2.15a4.94 4.94 0 0 1 -.28-1.17c0-.35-.6-1.89-2.32-1 0 0-3.55-2-5.52.42a2.79 2.79 0 0 0 -.53 3.26c1 1.74 1.77 2.78.42 4s-1.78.54-1.78.54-2.31-.42-2.69 1.45c0 0 1.27 1.46-.14 1.66s-2.47-.74-3.22-.06c0 0-4.36-.77-4.75.82l.92.55a22 22 0 0 1 -.42 3.2c-.27.91-.21.39.7.66s-.25 2.34-1.25 1.85-1.3-.75-1.45-1.15-2.21-.13-2.68 1.71.48 2.31-.69 2.32a1.24 1.24 0 0 1 -1.35-1.49c.09-.6-1.86-.11-2.16.88l-.55 1.82-1.71-.88s-1.88.25-2.17 1.24 0 3.88 0 4.69a6.19 6.19 0 0 0 1.07 3c.45.31-.46.94-.46.94s-2.39-.45-3.78-.6-.7 1.14-.7 1.14l4.55 3.44.08.71a61.52 61.52 0 0 1 11.82 5 18.85 18.85 0 0 0 2.37-.18c.95-.17 2.83-.72 3.89-.78s4.91 1.32 5.65 1.32-1-1 1-1.93 2.05-.35 2.08-.94a.62.62 0 0 1 1-.51c.49.37 1.32.84 1.92.58a.86.86 0 0 0 .6-1c0-.45-1.6-1.6-1.48-2s-.77.07-1.45-.14a4.33 4.33 0 0 0 -2.08.2 2.55 2.55 0 0 1 -1.22.08c-.88 0-1.28.29-2.59.2s-4.45 1.12-7.95-.37l-2.76 1.47-1-.51a7.8 7.8 0 0 0 3.41-3.91l1.44-.31s1.38-2.87 3.28-3.72a9.88 9.88 0 0 1 3.62-4.36l-.87-1.31.59-1.24 1.77.08s.55-4.31 2.83-3.48l1.25-1.41 2 .37s.56-4.61 7.07-3.93c0 0 .54-1 3.22-.53s.06-.95 4.35.19a10.2 10.2 0 0 0 2.87-.11c2.1-.27 1.59-1.32 4-.73s.54.16 3.44.95.57-.65 4.46.82 1.38.86 4.27 1.43.54-.29 4.4 1 .8-.43 3.86 1.31 7.1 2.2 8.54 3.15 2.24.75 3.51 1.73 2.06 2.33 3.41 2.81.66-1.44 2.05.62 1.71 1.78 2.54 2.25 1.26 2 2.61 2.73 2.26.68 2.7 1.7a1.59 1.59 0 0 1 -.37 1.76s-1.21.53.21 1 1.72-.53 1.92.8-.45 1.51.39 2.21a7 7 0 0 1 1.93 2c.32.69 1.18 1.54 1.57 2.26a9.44 9.44 0 0 1 .76 2.17 9.37 9.37 0 0 0 .67 2.21 4.09 4.09 0 0 1 .5 2.09 5.69 5.69 0 0 0 -.11 2.35 7.59 7.59 0 0 0 .15 2.73l-.32.81s-1.63-.79-2.84-7.2c0 0-1.21 2.55 2.48 10.15a1.08 1.08 0 0 1 -1.59.57c-1.17-.58-.81-1.29-1-2.26s-1.38-4.59-2-3.74a40.92 40.92 0 0 1 1.35 5c.2 1.56-.11 3.85.2 4.54a2.79 2.79 0 0 1 -.32 2.82c-.71.61-1.87 1-2.42.09s-1.07-.92-.7-2.15l.17-.55s-1.1.2-.69-1.17 1-2.47.53-2.53a3 3 0 0 0 -3.49 1.45c-1 2-1.46 2.62-.9 3.76s.32 6.89-.22 8.44-1.09 1.39-1.46.38-1.38-10.34-3.74-12.17c0 0-1.26-2-2.19.84 0 0-1.33 1-3.66-2.22s-1.19-1.25-2.34-3.16-2.89-1.1-3.47-1.87.07-.73-1.13-1.46-.61-.71-3-2.31-2.64-.64-1.83-.1a13.46 13.46 0 0 1 2.58 2.34c.77.9 1 1 1 1.87s2.91 2.74 3.53 3.15a8.7 8.7 0 0 1 2.19 1.92c.63.86.18 1.63 1.52 2.4s1.87 1.46 3.17 1.85 2-.08 2.54.76-.12 2.13-.06 2.67 2.39 2.73 2.35 3.61a7.52 7.52 0 0 0 .16 1.61 190 190 0 0 1 23.24 10.32 14.67 14.67 0 0 0 1.37-.85c.33-.23.69-.49 1.05-.79l.14-.12.39-.35a1.07 1.07 0 0 0 .16-.14l.42-.42.09-.1a6.19 6.19 0 0 0 .47-.55l.1-.14c.11-.15.21-.29.3-.44l.12-.21a3.61 3.61 0 0 0 .22-.44l.09-.19a3.13 3.13 0 0 0 .2-.66l-1.57-.74.2-1.56-3-.73a16.14 16.14 0 0 0 2.07-1.78l.41-.45.06-.07c.12-.13.24-.28.35-.42a1.13 1.13 0 0 0 .1-.13c.11-.13.2-.27.3-.4l.12-.18c.08-.12.16-.25.23-.38l.13-.22.18-.38a2.56 2.56 0 0 0 .11-.24l.14-.39c0-.08.05-.16.08-.25s.06-.28.08-.43 0-.14 0-.22a3.61 3.61 0 0 0 0-.66s-2.19-.47-.25-2.14 5.28 1.58 5.58-5.71a2.85 2.85 0 0 0 -.47-.89c-.36-.41-.89-.51-1.55 1a3.33 3.33 0 0 0 -2.75 1 3.33 3.33 0 0 0 -.5.68 4.67 4.67 0 0 0 -.41.95s-1.42.56-1.65-.5.09-1.77-.57-2 1.51-.54 2.22-.23 2-2.46 1.72-3.62-.79-2.76-3.24-1.79c0 0-1.87.52-2.18-.83s.43-2 2.76-1.42c0 0 .27-1.18-.85-3.77l.08-.06c.38-.34 1.84-1.77 1-3.33a4.08 4.08 0 0 0 -1.67-1.54s-1.46-.26-1-2.1c0-.12.09-.25.13-.37l.07-.18c.4-1.18 1.08-2.37 1.39-3.37 0 0 0-.07 0-.11a3.28 3.28 0 0 0 .08-.41.78.78 0 0 0 0-.14 1.32 1.32 0 0 0 0-.49 1.28 1.28 0 0 0 -.19-.44 3.73 3.73 0 0 0 -.3-.43c-.93-1.15-2.83-2.52-3-3.42a25.73 25.73 0 0 0 -1.81-3.27c-.11-.22-.22-.46-.32-.69s-.08-.19-.11-.28-.14-.37-.19-.55a5 5 0 0 1 -.11-.5 2.93 2.93 0 0 1 -.07-.41 3.62 3.62 0 0 1 0-.93c.44-2.66 1.41-2 2.23-2.93a.47.47 0 0 0 .11-.25s0 0 0 0a1 1 0 0 0 0-.29c-.23-1.19-2.52-3.13-3.65-2.64-1.34.59-.24 1.73-3.24.92 0 0-1.32-.4-1.73.65s-3.11-1-2.23-2.47a3.39 3.39 0 0 1 .62-.7c.16-.15.33-.29.5-.43l.33-.28.08-.07.33-.3.07-.08a3.09 3.09 0 0 0 .33-.39l.06-.1a2.4 2.4 0 0 0 .27-.47 2.64 2.64 0 0 0 .16-.54.36.36 0 0 0 0-.11 3.51 3.51 0 0 0 .05-.67c0-.05 0-.1 0-.15a4.51 4.51 0 0 0 -.11-.84 6.19 6.19 0 0 0 -5.81-1.04z"/><path d="m453.38 114.73-.28 1.54a15 15 0 0 0 .28-1.54z" fill="#1e1a17"/><path d="m387.19 108.75c-.07-1.36-.14-3.24-.2-5.36l-.13.71c.07 1.69.19 3.23.33 4.65z" fill="#1e1a17"/><path d="m408.76 87.54a13.3 13.3 0 0 0 -8.53 2.65 15.23 15.23 0 0 1 8.53-2.65z" fill="#1e1a17"/><path d="m334 184.08-.27-.37c.02.1.1.21.27.37z" fill="#1e1a17"/><path d="m386.7 94.49a4.54 4.54 0 0 0 -3.44-4.15 6.24 6.24 0 0 1 3.44 4.15z" fill="#1e1a17"/><path d="m392.5 114.47a15.18 15.18 0 0 0 .48 1.88c.27 1.17.6 2.28 1 3.35a23.26 23.26 0 0 1 -.64-3 12.6 12.6 0 0 1 -.84-2.23z" fill="#1e1a17"/><path d="m366 104a55.19 55.19 0 0 1 -8 5.68 23.38 23.38 0 0 1 -2.35 1.28 30.37 30.37 0 0 0 10.35-6.96z" fill="#1e1a17"/><path d="m419.64 137.15a1.61 1.61 0 0 1 2.07-.43 2.21 2.21 0 0 0 2.24 1.5l1.78-4.69c2.1-1 3.39-3.84 3.39-3.84a4.6 4.6 0 0 0 1.94 0l.42-1.15-.71-2.6c.82-1.25 2.92-5.76 2.92-5.76a4.86 4.86 0 0 0 1.3-3.35l-1-.67a17.6 17.6 0 0 0 1.08-2.59 4.47 4.47 0 0 0 0-2.15c-.21-.28.74-1 .74-1 1.7-1.66 0-2.6 0-2.6-2.51-1.35-3.22.53-3.22.53l-1.34-.26.39-1.3-3.39-.64s.11.63-1 1.2-.8-.09-2-.37-.77.82-1.07 1.33 1.13 0 .21 1a2.11 2.11 0 0 1 -2.31.5l-.11-2.12c-1.41-.28-1.56-1.52-.95-1.56s1.4-.7.37-1a1.76 1.76 0 0 1 -1.13-1.46c1.17-4.88-2.54-7.93-2.56-7.12a11.75 11.75 0 0 1 -.55 5.06c-.9 2.49-4 2.23-6.21 1s-3.52-1.72-2.72-4.62a6.81 6.81 0 0 1 3.24-4.1c-5.52-2.48-11.9 1.35-11.9 1.35l-1.29-.68c6.49-4.7 14.19-2 16.71-1.19s7.19 4.4 7.37 5.27.84.7 2.18 1 1.56.76 1.61 1.6.16.94.95 2.07.67-.24 1.1-.94 3.2 1 3.74 1.2a2.22 2.22 0 0 0 1.63-.18c.44-.24 1.53-4.62 1.53-4.62a3.16 3.16 0 0 0 .64-2.85c-5.21-2.35-12.9-5.66-17.3-6.7-2.79-.66-6.27-1.7-9.82-1.74a15.23 15.23 0 0 0 -8.53 2.65 16.68 16.68 0 0 0 -4.46 5.36 27.81 27.81 0 0 0 -3.27 18.92 12.6 12.6 0 0 0 .8 2.24 23.26 23.26 0 0 0 .64 3 33.45 33.45 0 0 0 13.24 17.07c.33.22.66.41 1 .62 1.13.7 1.84 1.05 1.84 1.05.25.18.5.34.75.49l.49.25c4.22 2.07 7.55-.98 8.53-1.98z" fill="#fff"/><path d="m413.37 95.48a1 1 0 1 0 .69 1.29 1 1 0 0 0 -.69-1.29z" fill="#fff"/><path d="m360.8 113.08c.79-.14 1.47-.68 2.47.74s2.67 4.76 10.08 6.68c0 0 2.52.09 5.42.36s2.6-.19 7.12 1.39 4 1.12 4.29.39-1.92-4.23-2.92-13.36l-.05-.3c0-.07 0-.16 0-.23-.14-1.42-.26-3-.33-4.65l.13-.71c-.08-2.43-.15-5.16-.19-7.77a9.5 9.5 0 0 0 -.1-1.13 6.24 6.24 0 0 0 -3.44-4.15h-.29c-3.84-1.15-6.61 2.43-6.61 2.43a57.46 57.46 0 0 1 -10.38 11.23 30.37 30.37 0 0 1 -10.33 7c-.35.17-.71.33-1.07.48.94.21 5.49 1.72 6.2 1.6z" fill="#fff"/><path d="m390.91 124.43s-1.74 4.33-5.31 4.52-2.41 1.07-2.41 1.07a8.64 8.64 0 0 0 2 1.95c1.13.72 3.36 1.24 5.43 3.05s2.12 5.12 2.43 7.08 3.72 1.78 3 5.08 1.29 3.15 1.95 3.43.47 1.93.53 2.47 5.47-2.31 6-3.57a47.81 47.81 0 0 1 3.74-6.5c.09-.09-.08-.27-.43-.52a40.09 40.09 0 0 1 -13.1-11.36l-.13-.18a.61.61 0 0 0 -.07-.1 34.28 34.28 0 0 1 -3.63-6.42z" fill="#fff"/><path d="m338.13 117.48c-2.51 1.41-1.59 3.33-1.85 3.7s-1.76.14-1.17 2.41 2.62.71 3.17.35.68 0 1.68-.09 1.84-.94 2.78-1.33 3-2.17 3-1.63a3.91 3.91 0 0 0 1.86 3.11c1.5.74 3.2-2 3.2-2a3.52 3.52 0 0 0 2.8-.36 2.44 2.44 0 0 0 2.2-.38c-4.31-1.92-5.51-7.65-5.67-8.53-.47.1-.94.18-1.41.25a29 29 0 0 1 -11-.13c-1.57 2.02.41 4.63.41 4.63z" fill="#fff"/><path d="m343.06 131.65c2 .44 4-1.34 4.86-.26s.35 1.07.35 1.07l4.44 1.11s1.87 2.73 4.05 1.44a1.71 1.71 0 0 1 2.26.68c.93 1.4 2.51 3.59 8.19 3.57s8.07.71 9.38 1.55 2 0 2.93.2 3.71.07 5.44 2.53 3.34.78 3.64-.7 1-1.34-1-3.36-2.66-2.07-2.7-3.2.42-2.63-2.05-3.6a5.12 5.12 0 0 0 -4.85.32c-.8.43-6.92-1.55-6.92-1.55s-.93-3.64-3.41-4.31-2.7-.21-2.78.06.39 2.43-.6 2.51-9.51-3.9-13.63-3.86a10.87 10.87 0 0 0 -8.79 3.93s-.76 1.43 1.19 1.87z" fill="#fff"/><path d="m385.67 162.57c-.69-1.18-.06-1.29-1.43-2.22a1.45 1.45 0 0 0 -2.12.11c-3.11.41-1.71 3.22-1.71 3.22 0 .36-1.28 1-2.66 1.14s-1.81.57-2.14 2.42-.91 2-2.39 3.24-.44 1.21-.46 2-.44 1-1 .08-1.66.55-3.48 1.64a18.73 18.73 0 0 1 -5.94 2.4c-3.35.94-4.07.35-6.61-.12s-1.46.39-2.72.83-.7-.88-1.64-1.24-2.27-.9-3.64-1.54-.69-.43-1.57-.24-.06 1.69-.12 2.65.1 1.15 1.17 1.32.57-.43.55-1.1-.24-.68-.19-1.11 1.27.24 1.35.48a6.36 6.36 0 0 1 -.46 2 1.13 1.13 0 0 0 .13 1.31c.36.55 1.06-1 1.51-1.79s1 0 1.44.66 0 2.17 1.41 3 2.37 0 3.4-1.14.86-.64 1.75-.37 2.06 1.36 3.09 1.89a2.15 2.15 0 0 0 2.82-.94c.52-1 1.28-.29 2.86.18a1.89 1.89 0 0 0 2.48-1c.41-.63.55-1.11 1.17-.92a18.68 18.68 0 0 0 2.48.59c.93.13 2.27-1.11 2.84-1.76a2.53 2.53 0 0 0 .62-2c-.07-.77-.83-1.74-.59-2.79s1.82-1.32 2.39-1.75 1.18.06 2.52.31 1.28-1.78 1.94-2.48-.68-1.7.64-1.15.87.11 2-.6.71-2.62.91-3.54.09-.5-.6-1.67z" fill="#fff"/><path d="m354.94 166.71c10.31 2 13.88-2.48 15.26-2.59s2.38-2.2 2.94-1.58-.14.46-1.14 1.46 0 1.65 2.09 1.22 4.25-3.2 7-5.59 2.56-4.54 2.56-4.54c-3.54-.91-13.17 1.58-12.64 1.07a6.41 6.41 0 0 0 1-2c-.4-1.17 1.34-2.74 1.11-4.45s-1.3-1.88-2.11-2.42-1.52-.91-2.4-.2-2.12.33-3.85-.63-2 .06-4.09 0-1.38 1.61-2 .29-.75-1.72-2.31-1.51-1.36-.19-2.87-1.38-2.78 1.32-2.78 1.32c.22-2.24-.84-2.19-2.56-2.93s-1.36 1.12-1.38 1.38c-.15 1.75 1.53 3.37 2.88 4.07l1.36.71c1.14 2.66 5.22 3.73 5.22 3.73 2.3-.2 3-3 3-3 2 0 3 4.7 4.9 5.05s1.43-3.53 1.43-3.53c.81 1.81 3.82 4.21 3.61 5.64s-.72 1.65-3.63 1.67a18.53 18.53 0 0 1 -6-1.2c-1.06-2.93-3.37-.71-3.37-.71-4.94-1.93-6.43-4.69-7.78-6.14s.89-1-2-2.47-4.85-5.49-6.57-6.23-1.13 1.75-1.13 1.75a32.67 32.67 0 0 1 .91 6.69c0 1.11 0 1.57.76 1.95s1.29-.81 1.51-1.79.75-.52.75-.52c.66 5.78 2.01 15.44 12.32 17.41z" fill="#fff"/><path d="m370.79 74.56a19.69 19.69 0 0 0 -1.93-2.77 25.93 25.93 0 0 0 -2.52-2.5c-.48-.38-.94-.73-1.36-1a8.81 8.81 0 0 1 -1.33-1.1c-1.17-.84-2.51-1.72-4.06-2.64a10.43 10.43 0 0 1 -2.22-1.26c-1-.56-2.12-1.13-3.3-1.7-.37-.09-.78-.17-1.26-.24-4.16-.57-4.95 6.28-5.56 9.08s2.49 2.57 2.49 2.57c4.2-.31 8.24.16 13.94 3.06s7.49 9.86 7.19 10.37-.88 0-1.5-.23-.35-2.56-2-4.17-1.3-2.63-1.65-2.21a29.66 29.66 0 0 0 -1.45 3.6c-1.89 2.56-3.44 1.5-5.67 1s-2.13-1.42-2.6-2.05c-.76-1-.06-3.3 0-4.25s2.27-2.12 2.27-2.12c-1.37-1.38-2.87-1.11-4.76-.31-1 .44-2.86 4.82-2.86 4.82-1.49 1-1.66-.2-1.86 0a2.33 2.33 0 0 0 -.32 1.32c.08.25 1.21.44 1.82.92a7.58 7.58 0 0 0 2.46 1.49 11.16 11.16 0 0 1 1.84.85c-.78.59-.59.72-.41.85s2.48 1 2.48 1c1.24 1.57-.15 1.23-.15 1.23l-5.46-1.19-.45 1 2.8 1.37a12.89 12.89 0 0 1 -6.4-3.35 3.38 3.38 0 0 1 -1.67-1.62c-.37-.78.32-1.1-.75-1.5s-.35-1.07-.08-1.74-.26-.6-.67-.5a3.86 3.86 0 0 1 -2.37-.56c-.53-.46-1.18 1.22-1.18 1.22l-1.55-.32-.73 2.02c-1.7-.06-.88.93-1.07 2.82s-.85 1.83-1.71 2.7-1.5 1-2.91 4.49-.35 5.13-.44 6.67.93.65 1.63.79.82.76.49 1.86.54 1.43 1.51 1.42a1.34 1.34 0 0 1 1.3 1.66c-.16.77 1 3 1 3a23.89 23.89 0 0 0 19.45-3.12c6.72-4.48 12.93-13 13.47-14.55.14-.42.5-1.1.9-2a17 17 0 0 0 -.33-12.89 4.71 4.71 0 0 0 -.5-1.29z" fill="#fff"/><path d="m361.17 79.75a.93.93 0 0 0 1.16-.62 1 1 0 0 0 -.63-1.13.92.92 0 0 0 -1.15.62.93.93 0 0 0 .62 1.13z" fill="#fff"/><path d="m403.38 82.6a126.73 126.73 0 0 1 24.92 5.56c2.13.69 4.19 1.42 6.18 2.15a7.52 7.52 0 0 1 -.16-1.61c0-.88-2.29-3.07-2.35-3.61s.63-1.83.06-2.67-1.24-.37-2.54-.76-1.84-1.08-3.17-1.85-.89-1.54-1.52-2.4a8.7 8.7 0 0 0 -2.19-1.92c-.62-.41-3.55-2.34-3.53-3.15s-.24-1-1-1.87a13.46 13.46 0 0 0 -2.58-2.34c-.81-.54-.52-1.5 1.83.1s1.77 1.57 3 2.31.54.68 1.13 1.46 2.33 0 3.47 1.86 0 0 2.34 3.16 3.66 2.22 3.66 2.22c.93-2.85 2.19-.84 2.19-.84 2.36 1.83 3.37 11.17 3.74 12.17s.92 1.18 1.46-.38.77-7.31.22-8.44-.14-1.76.9-3.76a3 3 0 0 1 3.44-1.51c.43.06-.12 1.16-.53 2.53s.69 1.17.69 1.17l-.17.55c-.37 1.23.16 1.24.7 2.15s1.71.52 2.42-.09a2.79 2.79 0 0 0 .32-2.82c-.31-.69 0-3-.2-4.54a40.92 40.92 0 0 0 -1.35-5c.63-.85 1.78 2.78 2 3.74s-.13 1.68 1 2.26a1.08 1.08 0 0 0 1.59-.57c-3.69-7.6-2.48-10.15-2.48-10.15 1.21 6.41 2.84 7.2 2.84 7.2l.32-.81a7.59 7.59 0 0 1 -.15-2.73 5.69 5.69 0 0 1 .11-2.35 4.09 4.09 0 0 0 -.5-2.09 9.37 9.37 0 0 1 -.63-2.13 9.44 9.44 0 0 0 -.76-2.17c-.39-.72-1.25-1.57-1.57-2.26a7 7 0 0 0 -1.93-2c-.84-.7-.19-.88-.39-2.21s-.5-.3-1.92-.8-.21-1-.21-1a1.59 1.59 0 0 0 .37-1.76c-.44-1-1.34-1-2.7-1.7s-1.78-2.25-2.61-2.73-1.14-.17-2.53-2.24-.7-.14-2.05-.62-2.14-1.83-3.41-2.81-2.08-.77-3.51-1.73-5.48-1.41-8.54-3.15 0 0-3.86-1.31-1.51-.45-4.4-1-.38 0-4.27-1.43-1.56 0-4.46-.82-1-.37-3.44-.95-1.93.46-4 .73a10.2 10.2 0 0 1 -2.87.11c-4.29-1.14-1.66.32-4.35-.19s-3.22.53-3.22.53c-6.51-.68-7.07 3.93-7.07 3.93l-2-.37-1.25 1.41c-2.28-.83-2.83 3.48-2.83 3.48l-1.77-.08-.59 1.24.87 1.31a9.88 9.88 0 0 0 -3.59 4.34c-1.9.85-3.28 3.72-3.28 3.72l-1.44.31a7.8 7.8 0 0 1 -3.41 3.91l1 .51 2.83-1.46c3.5 1.49 6.63.27 7.95.37s1.71-.24 2.59-.2a2.55 2.55 0 0 0 1.22-.08 4.33 4.33 0 0 1 2.08-.2c.68.21 1.57-.27 1.45.14s1.47 1.56 1.48 2a.86.86 0 0 1 -.6 1c-.6.26-1.43-.21-1.92-.58a.62.62 0 0 0 -1 .51c0 .59 0 0-2.08.94s-.28 1.93-1 1.93-4.58-1.37-5.65-1.32-2.94.61-3.89.78a18.85 18.85 0 0 1 -2.37.18c9.78 5.31 19 12.58 25.36 16.6 6.42 4.16 20.06 6.99 20.06 6.99z" fill="#fff"/><path d="m338 188.19c.31.27.64.54 1 .83h.06c.37.3.75.59 1.16.9a55.92 55.92 0 0 0 6.14 4l1.08-.25 4 .08-.12-.22a52.55 52.55 0 0 0 -4.22-6.37 36.28 36.28 0 0 1 -3.39-4.78c-2.23-3.41-1.12-4.47-1.13-6.15s1.28-1.33 2.11-2.38-.35-1.31-1.51-2.08-4.11-5.64-4.91-6.72-.36-.8-1.65-.36.47 2.61.44 4.27-1.94.58-2.61.47-7.54-2.38-7.54-2.38v.06s0 .07 0 .12v.07a1.85 1.85 0 0 0 0 .25 21.79 21.79 0 0 0 3 10.81 41.24 41.24 0 0 0 2.69 4c.31.38.61.77 1 1.15a.57.57 0 0 0 .06.09l.06.08.27.37c.7.82 1.45 1.65 2.27 2.48.28.28.59.55.88.83l.82.73z"/><path d="m347.76 37.87c.21 0 .33-.87.4-1.51l-1.68.75a1.67 1.67 0 0 0 1.28.76z" fill="#fff835"/><path d="m365 27c1.07 0 .26-1.59.07-1.95h-.77-.34a1.51 1.51 0 0 0 -.37.07 2.43 2.43 0 0 0 -1.46 1.27 6.88 6.88 0 0 0 2.87.61z" fill="#fff835"/><path d="m368.66 23.74c1.74-1 2-1.37 1.71-1.89l-.18-.31c-.48-.71-2.23-1.53-1.41-4 .66-2 1.45-.94 1.76-1.86l-.52.09s-3.95 1.16-3.72 4a6.63 6.63 0 0 0 .12.89 1.33 1.33 0 0 1 .05.19 5 5 0 0 0 .16.54v.08c.35.94.77 1.32.46 2.12a1.3 1.3 0 0 0 1.57.15z" fill="#fff835"/><path d="m380.22 16.68a4.08 4.08 0 0 0 2.29-3.91l-.25.12-.38.21-.2.11a4.85 4.85 0 0 0 -.59.45l-.15.13a5.11 5.11 0 0 0 -.54.59l-.07.08a5.62 5.62 0 0 0 -.49.84l-.1.21a5.37 5.37 0 0 0 -.34 1.09 1.34 1.34 0 0 0 .82.08z" fill="#fff835"/><path d="m385.74 12.06c.22.1.64-1.3.07-1.58s-.63-.44-.44-1.29.75-.69 1-.64.11-1 0-1.24a8 8 0 0 1 -.2-1.42 2.42 2.42 0 0 0 -.37 0 2 2 0 0 0 -.4.08 2.37 2.37 0 0 0 -.34.13h-.09a1.74 1.74 0 0 0 -.36.24 1.52 1.52 0 0 0 -.26.3l-.07.12a2.11 2.11 0 0 0 -.21.48.13.13 0 0 0 0 .06 2.63 2.63 0 0 0 -.08.59 1.27 1.27 0 0 0 0 .2 6 6 0 0 0 .05.81v.1l-.07.05-.13.11-.16.15-.09.11-.09.1-.11.16a.22.22 0 0 0 0 .08 2.15 2.15 0 0 0 -.19.37.61.61 0 0 1 0 .12 1.42 1.42 0 0 0 -.05.22v.15a1.94 1.94 0 0 0 0 .24 2.48 2.48 0 0 0 0 .27.38.38 0 0 1 0 .1s0 0 0 0a2.5 2.5 0 0 0 2.59.83z" fill="#fff835"/><path d="m356.85 33.7c.86.15.37-.5 0-1.25s-.07-.75.39-2.5a2.32 2.32 0 0 0 -.85-2.16h-.05a5.42 5.42 0 0 0 -.48.26c-.14.09-.28.2-.41.3l-.06.05a2.15 2.15 0 0 0 -.29.32l-.07.09a2 2 0 0 0 -.24.45c-.05.15-.09.29-.13.42a.13.13 0 0 0 0 .06c0 .1-.05.19-.07.27a.28.28 0 0 0 0 .09.63.63 0 0 0 0 .19s0 0 0 0v.18c0 .76.73.51.49 2.45a4.32 4.32 0 0 0 1.77.78z" fill="#fff835"/><path d="m352.4 37.05c1 .54.66-1.58.36-2.87l-2.13 1h-.08a3.83 3.83 0 0 0 1.85 1.87z" fill="#fff835"/><path d="m344.73 47c.47 0-.17-1-.06-1.48s-.4-1.21-.62-1.93a3.41 3.41 0 0 1 .05-2.09 9.7 9.7 0 0 0 -.57-3.19l-1 .34h-.17a8.33 8.33 0 0 1 -.85.2 13.54 13.54 0 0 0 .33 7.3 22.91 22.91 0 0 0 2.89.85z" fill="#fff835"/><path d="m340.9 48.52c-.34-.58-.71-.7-1.53-1.14l-1.22.61a7.36 7.36 0 0 0 -1.12.63l4.05 1.38a2.14 2.14 0 0 0 -.18-1.48z" fill="#fff835"/><path d="m317 104.27-1.46-1-.23-.17c-.94-.7-1.79-1.4-2.55-2.09l-.17-.16c-.74-.68-1.4-1.34-2-2l-.16-.18c-.56-.63-1.05-1.25-1.48-1.84l-.12-.16-.62-.92a12.57 12.57 0 0 1 -2.34-5.11c-4.7-4.9-1.15-22.06-1.15-22.06s.66-3.29 1.45-6.64.89-4.31.89-4.31c0-.44-.73-.81-1.07-1.34l-.17-.12s0-.12.05-.18v-.25c0-.87-.81-.46-1.25-1.06s.46-1.89.61-2.87 3.38-8.46 3.38-8.46-2-1-2.31.21l-4.3 10.49s-.37 1.24 1.34 1.84 1.92 1.39 1.65 2.3-7.24 22-2.24 33c.28.61.57 1.19.87 1.75.08.16.17.31.25.46.27.47.54.93.82 1.38.05.07.09.15.14.23.32.49.65 1 1 1.43l.29.38c.28.36.56.71.85 1l.24.29c.35.4.71.79 1.07 1.16l.3.3c.29.29.59.57.88.84l.31.28c.37.32.75.64 1.12.93l.28.22c.31.24.62.46.92.68l.34.24c.38.27.76.52 1.14.76l.2.12c.33.21.66.4 1 .59l.33.19 1.09.59h.05l.78-.78z" fill="#fff835"/><path d="m346.36 194a38.4 38.4 0 0 1 -9.19-6.5l-.06-.06c-.29-.28-.6-.55-.88-.83-.56-.54-1-1-1.39-1.45l-.45-.52-.05-.06-.36-.44q-.72-.86-1.35-1.68a27.84 27.84 0 0 1 -2.69-4 32.58 32.58 0 0 1 -2-3.82c-1.51-1.92-1.73-6.38-1.77-7.27v-.13a14.56 14.56 0 0 0 -1-2.34 30.06 30.06 0 0 1 -.73-4.94c.45-3.21-.68-8.52-.91-9.42s-1-9.35-1.71-10.17-.94-5.22-1.2-6.53a30.84 30.84 0 0 1 -.16-4.55c-.76-1.72 0-4.24.43-6a23.19 23.19 0 0 0 .46-4.18c.12-1.6 1.1-1.38 1.66-3.14a7 7 0 0 0 0-4.18 7 7 0 0 1 0-2.81c.12-1.24-1-1.23-1-1.23a3.74 3.74 0 0 0 -1.53 2.19 6.45 6.45 0 0 0 .33 3.93 4.51 4.51 0 0 1 -1.65 4.91s-3.12 13.1-.33 20.6a40.88 40.88 0 0 1 2.79 12.9s-.28 12.33 1 13.71v.01a1.15 1.15 0 0 0 0 .16c0 .18.06.46.11.82 0 .11 0 .2.05.31.06.36.14.8.24 1.27 0 .17.07.33.11.51s.08.35.12.52.12.46.18.71l.15.52c.08.3.17.6.27.91 0 .15.09.3.14.46.15.48.32 1 .51 1.48a.36.36 0 0 1 0 .09c.18.48.38 1 .59 1.46l.21.45c.17.39.36.79.56 1.18.08.18.17.35.26.52.21.41.44.82.67 1.23l.26.45c.34.56.69 1.12 1.08 1.67.37.54.78 1.08 1.21 1.61l.4.48c.32.38.65.75 1 1.12l.51.53c.36.36.73.71 1.12 1.05l.52.47c.57.48 1.16.95 1.8 1.4l.09.09.08.08.13.12.12.11.2.17.15.13.41.33.23.19.3.23c.09.07.19.15.3.22l.34.25.35.26.42.29.39.26.84.56.45.28.59.36.53.32.63.37.59.33.75.41.59.32c.42.23.86.45 1.32.68l.1.06.92.16z" fill="#fff835"/><path d="m468.37 122.67 4.46-12.17a9 9 0 0 0 -2.13-1.89l-.21.31.28.22.09.07.17.14h.06l.15.12-4.32 11.4a5.59 5.59 0 0 0 -6.58 2.44c-3 6.66-9.85 15.13-9.85 15.13a25.34 25.34 0 0 1 -18.82 10.83s1.56.2.93.82a26.16 26.16 0 0 0 -2.21 3.75c-.73 5.45-4.21 5.93-4.21 5.93a57.92 57.92 0 0 1 -11.6 13.23c-10.5 8.91-19.64 12.38-20.53 12.65s-4.28 2-4.28 2c-2.26 4.54-12.17 7.86-13.65 8.59s-4 1.68-4 1.68a18.51 18.51 0 0 1 -7.73.56c-.44 0-.89 0-1.36-.07h-.47l-1-.1-.56-.09-.93-.15-.58-.1-.95-.19-.55-.12-1-.22-.48-.12-1.09-.27-.36-.1c-.4-.11-.8-.21-1.19-.33l-.2-.05-1.31-.38a.53.53 0 0 1 -.07.42 13.07 13.07 0 0 1 -2.43-.24l.81.35a72.79 72.79 0 0 0 15.33 3.57c1.09.11 2.18.19 3.24.2a17.43 17.43 0 0 0 6.54-2s11.71-4.5 14.1-8.28c0 0 1.41-1.11 2.3-1.65s10.26-5.11 11.13-5.3 15.8-8.58 22.05-19.22c0 0 2.22-3.2 3.3-3.51a3 3 0 0 0 2.37-3.07 5.79 5.79 0 0 1 .45-1.82 18.61 18.61 0 0 1 3.29-5.25 1.35 1.35 0 0 1 1.32-.38 5.12 5.12 0 0 1 1.28.54 3.29 3.29 0 0 0 .76.31c.94.19 11.34-7.49 15.93-13.49 0 0 6-8.37 8.05-13.34 0 0 .08-.11.23-.28a4.64 4.64 0 0 1 .39-.4c.11-.1.24-.2.38-.31a5.06 5.06 0 0 1 5.26-.37z" fill="#d266e1"/><path d="m352.31 196.53a.53.53 0 0 0 .07-.42c-3-.91-5.22-1.74-5.22-1.74l-1.44-.26-.38.1h.08c.65.32 1.34.65 2.07 1l2.39 1a13.07 13.07 0 0 0 2.43.32z" fill="#d266e1"/><path d="m403.92 9c.7-.44 1.94-5 2.53-5.87s-.09-.51.82-1.25a5.36 5.36 0 0 0 .54-.52 5 5 0 0 1 -.59.25h-.13a1.49 1.49 0 0 1 -.62.07c-1.4-.14-3 2.36-3.69 5.11 0-.01.44 2.6 1.14 2.21z" fill="#fff835"/><path d="m413.74 2.87c1.6.9.75 2.11.35 3.13a3.29 3.29 0 0 0 -.12.5 8 8 0 0 0 2.36.38 3.26 3.26 0 0 0 -2-4.11 4.27 4.27 0 0 0 -.09-.51 2.52 2.52 0 0 0 -.5.61z" fill="#d266e1"/><path d="m431.28 12.76a2.62 2.62 0 0 1 .21 2 .14.14 0 0 0 0 .06 4.37 4.37 0 0 1 -.19.48l.05.11a4.79 4.79 0 0 0 1.53-1l-.13-.18-.07-.09-.07-.11-.24-.33-.76-1-.27.18z" fill="#d266e1"/><path d="m444 24.52a3 3 0 0 1 -.18.84v.05a5.17 5.17 0 0 1 -.36.75 3.92 3.92 0 0 1 -.39.6l-.13.2c-.19.32-.34.81.46 1a2.8 2.8 0 0 0 1.24-.23l.16-.15.14-.16.06-.07.14-.19.06-.1.12-.22.06-.13a2 2 0 0 0 .08-.26.66.66 0 0 0 0-.15 2.72 2.72 0 0 0 0-.3c0-.05 0-.1 0-.15a2.14 2.14 0 0 0 -.07-.49.39.39 0 0 1 0-.06c.06-.17.1-.64-.55-1.74a1.5 1.5 0 0 0 -.84.96z" fill="#d266e1"/><path d="m449.07 32.06a3.51 3.51 0 0 1 -.05.67.36.36 0 0 1 0 .11 2.64 2.64 0 0 1 -.16.54 2.4 2.4 0 0 1 -.27.47l-.06.1a3.09 3.09 0 0 1 -.33.39l-.07.08-.33.3-.08.07-.33.28c-.17.14-.34.28-.5.43.76.33 1.94.8 2.2.64a3 3 0 0 0 1.43-.92 3.67 3.67 0 0 1 -.43-.09s1.3-2.85-1.11-4.11a4.51 4.51 0 0 1 .11.84c-.03.14-.02.14-.02.2z" fill="#d266e1"/><path d="m457.12 39.78a1 1 0 0 1 0 .29s0 0 0 0a.47.47 0 0 1 -.11.25c-.82.93-1.79.27-2.23 2.93a3.62 3.62 0 0 0 0 .93 2.93 2.93 0 0 0 .07.41 5 5 0 0 0 .11.5c0 .18.12.37.19.55s.07.19.11.28.21.47.32.69l1.53.12c-.13-.26-.24-.52-.35-.77 0-.06-.05-.11-.07-.17a5.45 5.45 0 0 1 -.21-.65c0-.08-.05-.16-.07-.24a4 4 0 0 1 -.07-.58 1.94 1.94 0 0 1 0-.24 2 2 0 0 1 .14-.74c.71-1.77 2.36-.37 2.07-2.71 0 0-.32-.52-.84-1.29z" fill="#d266e1"/><path d="m460.34 53.35a3.73 3.73 0 0 1 .3.43 1.28 1.28 0 0 1 .19.44 1.32 1.32 0 0 1 0 .49.78.78 0 0 1 0 .14 3.28 3.28 0 0 1 -.08.41s0 .08 0 .11c-.31 1-1 2.19-1.39 3.37l-.07.18c.51.34 1.19.76 1.63 1a4.66 4.66 0 0 1 .16-.49c.41-1.05 1.61-1.77 1-4.29a6.12 6.12 0 0 0 -.4-1.09l-.11-.21a7.27 7.27 0 0 0 -.57-.84l-.7.36z" fill="#d266e1"/><path d="m461.8 62.93c.84 1.56-.62 3-1 3.33l-.08.06c1.12 2.59.85 3.77.85 3.77l1.12.37-.05-.38a7.79 7.79 0 0 1 .31-3.42c.58-1.35 1.06-2.65-.72-3.9l-.06-.05z" fill="#d266e1"/><path d="m460.28 78c.66.2.35.92.57 2s1.65.5 1.65.5a4.67 4.67 0 0 1 .41-.95 3.33 3.33 0 0 1 .5-.68l-.91-1.07c-.71-.35-2.89-.01-2.22.2z" fill="#fff"/><path d="m467.71 76.86a2.85 2.85 0 0 1 .47.89c-.3 7.29-3.64 4-5.58 5.71s.25 2.14.25 2.14a3.61 3.61 0 0 1 0 .66v.22s-.05.29-.08.43-.06.17-.08.25l-.14.39a2.56 2.56 0 0 1 -.11.24l-.18.38-.13.22c-.07.13-.15.26-.23.38l-.12.18c-.1.13-.19.27-.3.4a1.13 1.13 0 0 1 -.1.13c-.11.14-.23.29-.35.42l-.06.07-.41.45v.19l1.11 1.57a20.38 20.38 0 0 0 3.21-4.71s-2.88-1.62-1.5-2.47 4.89.21 5.8-3.12c0 0 2.11-3.15-.52-4.57l-.09-.08h-.05l-.17-.17-.09-.09a1.7 1.7 0 0 1 -.19-.19l-.07-.06-.29.2z" fill="#d266e1"/><path d="m461.27 94.49 1.57.74a3.13 3.13 0 0 1 -.2.66l-.09.19a3.61 3.61 0 0 1 -.22.44l-.12.21c-.09.15-.19.29-.3.44l-.1.14a6.19 6.19 0 0 1 -.47.55l-.09.1-.42.42a1.07 1.07 0 0 1 -.16.14l-.39.35-.14.12c-.36.3-.72.56-1.05.79l1.49 1.46.35-.25c1-.69 3.52-2.62 3.62-3.69l-.06-.11c-.24-.49-1.29-2.53-2.26-4.06l-.75-.2z" fill="#d266e1"/><path d="m331.46 72.9c-1.25.52-1 .18-1.79 1.17s.46 4.66 1.16 7.33-.2 2.95-1.16 4.79-6.22 15-6.22 15c.53.5 2.34 2 2.51 1.44s2.08-8.55 2.88-11a34.05 34.05 0 0 1 3.16-6.11 9.54 9.54 0 0 0 1.61-5.13 47.18 47.18 0 0 0 -1.14-7.4 1 1 0 0 1 0-.51c-.32.14-.64.27-1.01.42z" fill="#fff835"/><path d="m332.57 56a6.32 6.32 0 0 1 0 1.45c-.1.59 2.92 2.59 2.83 3.8s-3 3.68-3.88 5.2-.3 1.68.81 2.29 2.06.69 1.58 2a3.38 3.38 0 0 1 -.29.63.41.41 0 0 0 -.05.09 2.87 2.87 0 0 1 -.37.45 5.49 5.49 0 0 1 .6-.11c1.21-.16 2.24-1.7 2.52-2.16-.65-.22-1.27-.41-1.27-.41a1.51 1.51 0 0 1 0-1.63c-.75-.08-1.13-.49-.74-1.93.54-2 2.84-3.33 3.29-4.36a5.69 5.69 0 0 1 .88-1.48c-.65-.43-1.41-.65-1.72-1.44 0 0 .17-.7.34-1.27l-1.68-.63z" fill="#fff835"/><path d="m337.17 57.15c.12-.39.24-.71.33-.72s3.47.08 4.27.6a28.26 28.26 0 0 0 -5.5-2.05l-.78 1.54z" fill="#72eef1"/><path d="m314.54 68.17c4.58-13.69 18-12.19 18-12.19l2.92.54.78-1.54c-4.28-1.12-10.33-1.66-15.4 1.88 0 0-6.11 2.82-9 13.38 0 0-4.4 14.29.14 23.19.16.29.3.59.48.87l1.23-.1c-2.27-4.45-3.69-12.35.85-26.03z" fill="#d266e1"/><path d="m331.26 90.23s3.48-4.51 3.68-7.46c0 0-1.29-5.18-1.15-7.44a1.3 1.3 0 0 1 .89-1.13c1-.32 2.84-1.06 3-2 .23-1.23.53-1.76-.13-2.09a10.81 10.81 0 0 0 -1.2-.47c-.28.46-1.31 2-2.52 2.16a5.49 5.49 0 0 0 -.6.11 2.87 2.87 0 0 1 -.81.54 1 1 0 0 0 0 .51 47.18 47.18 0 0 1 1.14 7.4 9.54 9.54 0 0 1 -1.56 5.16 34.05 34.05 0 0 0 -3.15 6.17c-.8 2.43-2.71 10.41-2.88 11s-2-.94-2.51-1.44c-4-1.39-9.74-7-9.74-7l-1.23.1a12.43 12.43 0 0 0 .77 1 40.47 40.47 0 0 0 7.26 6.07h.07c.36.24.73.48 1.11.71.56.34 1.14.69 1.76 1l1.16.63.23.12c.52.27 1.06.53 1.61.78-.01 0 3.78-13.3 4.8-14.43z" fill="#72eef1"/><path d="m332.43 72.48a2.87 2.87 0 0 0 .81-.54c-.51.13-.74.31-.81.54z" fill="#fff835"/><path d="m334.38 65.7c-.39 1.44 0 1.85.74 1.93a3.48 3.48 0 0 1 .72-.88c1.6-1.44 3.94-2.86 3.72-5.11a2.2 2.2 0 0 0 -1-1.78 5.69 5.69 0 0 0 -.88 1.48c-.46 1.03-2.76 2.33-3.3 4.36z" fill="#72eef1"/><path d="m434.48 90.31c-2-.73-4.05-1.46-6.18-2.15a126.73 126.73 0 0 0 -24.92-5.56s-13.64-2.83-20.2-7c-6.4-4-15.58-11.29-25.36-16.6a61.52 61.52 0 0 0 -11.82-5s-22-9.4-35.79-9.86c0 0-3.82 10-4.35 11.82 0 .06 0 .14-.05.18l.17.12c.62.41 2.66 1.89 2.38 3.34 0 0-5.57 19.75-2.22 31.38a13.41 13.41 0 0 0 2.06 4.74l.62.92.12.16c.43.59.92 1.21 1.48 1.84l.16.18c.58.65 1.24 1.31 2 2l.17.16c.76.69 1.61 1.39 2.55 2.09l.23.17 1.46 1a53.06 53.06 0 0 0 8.65 4.62s11.47 5.85 23.09 4.12c.47-.07.94-.15 1.41-.25a24.75 24.75 0 0 0 4.5-1.37c.36-.15.72-.31 1.07-.48a23.38 23.38 0 0 0 2.35-1.28 55.19 55.19 0 0 0 8-5.68 57.46 57.46 0 0 0 10.33-11.23s2.77-3.58 6.61-2.43h.29a4.54 4.54 0 0 1 3.44 4.15 9.5 9.5 0 0 1 .1 1.13c0 2.61.11 5.34.19 7.77.06 2.12.13 4 .2 5.36v.23l.05.3c.27 1.64 1.72 10.17 3.25 13.59a38.42 38.42 0 0 0 4.09 8 .61.61 0 0 1 .07.1l.13.18a40.09 40.09 0 0 0 13.1 11.36 72 72 0 0 0 11.37 5.19s8.53 2.52 12.4 1.66a25.34 25.34 0 0 0 18.82-10.83s6.86-8.47 9.85-15.13a5.59 5.59 0 0 1 6.58-2.44l4.32-11.4-.15-.12h-.06l-.17-.14-.09-.07-.28-.22a78.21 78.21 0 0 0 -12.77-8.31 190 190 0 0 0 -23.25-10.31zm-121.12-36.85c-3.57-1.61-2.74-3.16-2.74-3.16s1-1.23 4.5 0 2.91 2.58 2.79 3-.98 1.77-4.55.16zm58.25 35.33a20.86 20.86 0 0 1 -3.69 6.43c-15.28 21.13-34.07 12.64-34.07 12.64a72.46 72.46 0 0 1 -9-4l-.23-.12-1.16-.63c-.62-.34-1.2-.69-1.76-1-.38-.23-.75-.47-1.11-.71h-.07a33.4 33.4 0 0 1 -7.26-6.07 12.43 12.43 0 0 1 -.77-1c-.18-.28-.32-.58-.48-.87-4.58-8.36-.86-20.63-.86-20.63 3.51-17.13 15.14-18.32 15.14-18.32 7.27-2.19 21.94 4.45 21.94 4.45 2.15.9 4.09 1.78 5.85 2.65 1.18.57 2.27 1.14 3.3 1.7q1.17.63 2.22 1.26c1.55.92 2.89 1.8 4.06 2.64s1.92 1.45 2.69 2.11a25.93 25.93 0 0 1 2.52 2.5 13.86 13.86 0 0 1 1.93 2.77 4.71 4.71 0 0 1 .49 1.34 17 17 0 0 1 .32 12.86zm87.5 21s1-1.23 4.5 0 2.92 2.58 2.79 3-1 1.78-4.55.17-2.74-3.18-2.74-3.18zm-4.83 9.83c-1.1 5.26-4 10.06-7.22 14.29v.06l-.1.15v.06a2.05 2.05 0 0 1 -.16.26v.05c-.08.12-.17.26-.28.41s-.22.32-.35.49l-.39.51-.07.09-.46.57h-.05c-.27.33-.58.68-.91 1s-.7.72-1.09 1.09l-.1.09c-.23.22-.48.44-.73.66l-.09.08a22.74 22.74 0 0 1 -2.93 2.11l-.16.1c-.31.18-.63.36-1 .53l-.19.1c-.38.19-.77.38-1.17.55-4.19 1.8-9.64 2.41-16.37-.34a39.08 39.08 0 0 1 -9.11-3.47l-.49-.25c-.84-.46-1.71-1-2.59-1.54-.32-.21-.65-.4-1-.62a33.45 33.45 0 0 1 -13.24-17.07c-.36-1.07-.69-2.18-1-3.35a15.18 15.18 0 0 1 -.48-1.88 27.81 27.81 0 0 1 3.27-18.92 16.68 16.68 0 0 1 4.46-5.36 13.3 13.3 0 0 1 8.53-2.65c3.55 0 7 1.08 9.82 1.74 4.4 1 12.09 4.35 17.3 6.7 2.43 1.1 4.32 2 5.08 2.35a33 33 0 0 1 7.84 5.34 20.68 20.68 0 0 1 4.15 4.85 13.15 13.15 0 0 1 1.62 5.21 19.1 19.1 0 0 1 -.34 6z"/><path d="m450.31 120.4a3.9 3.9 0 0 1 2.54-2.78 13.48 13.48 0 0 1 .25-1.35l.28-1.54a3.48 3.48 0 0 0 0-.64l.1-.06v-.03a15.32 15.32 0 0 0 -2.31 2.25c-1.48 2.49-3.06 4.09-2.4 7.4 0 0-.25 2.33-.44 3.63l.34-.46a17.67 17.67 0 0 1 1.52-2c-.85-.56-.42-2.2.12-4.42z" fill="#d266e1"/><path d="m450.31 120.4c-.54 2.22-1 3.86-.09 4.37a12.11 12.11 0 0 0 2.63-7.15 3.9 3.9 0 0 0 -2.54 2.78z" fill="#fff835"/><path d="m453.5 114-.1.06a3.48 3.48 0 0 1 0 .64 15 15 0 0 1 -.28 1.54 13.48 13.48 0 0 0 -.25 1.35 12.11 12.11 0 0 1 -2.63 7.15 17.67 17.67 0 0 0 -1.52 2l-.24.39c-.71 2.17-1.86 6.22-2.18 6.86a3.42 3.42 0 0 0 -2.09 1.08c-.36.56-.81-.11-1.52-.24-.16.52-1 2.3-4.46 3.54 0 .13-.09.27-.14.42-.68 2.11-1.46 3.48-1.35 4.16.4-.17.79-.36 1.17-.55l.19-.1c.33-.17.65-.35 1-.53l.16-.1a22.74 22.74 0 0 0 2.93-2.11l.09-.08c.25-.22.5-.44.73-.66l.1-.09c.39-.37.76-.73 1.09-1.09s.64-.7.91-1h.05l.46-.57.07-.09.39-.51c.13-.17.25-.34.35-.49s.2-.29.28-.41v-.05a2.05 2.05 0 0 0 .16-.26v-.06l.1-.15v-.06c3.22-4.23 6.12-9 7.22-14.29a19.1 19.1 0 0 0 .29-5.88v-.21a9.78 9.78 0 0 0 -.98.39z" fill="#72eef1"/><path d="m442.67 134.87a1.67 1.67 0 0 0 -1.47.62c-1.56 1.56-2.18.72-3 2.92 3.48-1.24 4.31-3.02 4.47-3.54z" fill="#d266e1"/><path d="m317.91 53.29c.12-.41.71-1.76-2.79-3s-4.5 0-4.5 0-.83 1.55 2.74 3.16 4.43.26 4.55-.16z" fill="#fff"/><path d="m461.85 112.94c3.57 1.61 4.43.25 4.55-.17s.71-1.76-2.79-3-4.5 0-4.5 0-.82 1.56 2.74 3.17z" fill="#fff"/><path d="m68.18 111.37h-28.76v-8.83c0-4.12-.36-6.74-1.1-7.87a4.06 4.06 0 0 0 -3.68-1.67 4.69 4.69 0 0 0 -4.23 2.28q-1.41 2.26-1.41 6.9c0 4 .54 7 1.61 9s3.94 4.44 8.75 7.28q20.64 12.25 26.03 20.12t5.37 25.42q0 12.72-3 18.75t-11.49 10.08a45.56 45.56 0 0 1 -19.86 4.08q-12.43 0-21.22-4.71t-11.51-12q-2.68-7.26-2.68-20.66v-7.79h28.71v14.49q0 6.69 1.22 8.6t4.3 1.92a5 5 0 0 0 4.6-2.43c1-1.62 1.51-4 1.51-7.21q0-10.51-2.87-13.76t-14.47-10.81q-11.55-7.65-15.3-11.1a26.09 26.09 0 0 1 -6.22-9.57q-2.48-6.09-2.48-15.59 0-13.68 3.49-20t11.29-9.9q7.8-3.56 18.83-3.56 12.06 0 20.56 3.89t11.25 9.82q2.76 5.92 2.76 20.12z"/><path d="m147.9 75.33v119.08h-31v-50h-9.26v50h-31v-119.08h31v42.58h9.26v-42.58z"/><path d="m252.11 75.33v119.08h-27.11v-80.4l-10.77 80.4h-19.23l-11.36-78.56v78.56h-27.08v-119.08h40.07q1.78 10.74 3.67 25.31l4.4 30.29 7.12-55.6z"/><path d="m291.73 75.33v95.25h18.83v23.83h-49.79v-119.08z"/><path d="m15.21 223.47v5h-3.35v-5.08a7.34 7.34 0 0 1 -2.27-.39v1h-3.31v-6.33h3.31v1.69a9.2 9.2 0 0 0 3.64.72c.9 0 4.28-.15 4.28-2a1.52 1.52 0 0 0 -.43-1.11c-1-.87-2.52-1.08-3.81-1.44-4.07-1.19-6.84-1.91-6.84-5.65 0-4 3.13-5.26 5.43-5.58v-3.53h3.35v3.56a5.87 5.87 0 0 1 1.73.62v-1.09h3.27v6.3h-3.27v-1.72a8.68 8.68 0 0 0 -3.57-.83c-1 0-3.63.29-3.63 2.16a1.74 1.74 0 0 0 .72 1.4 9.87 9.87 0 0 0 3.31 1.26c3.56 1 7 1.91 7 5.58.02 4.41-4.3 5.2-5.56 5.46z"/><path d="m36.27 227.14c-3.89-5.87-4.61-10.91-4.61-13 0-4.36 2.09-9.4 4.75-13.21h3.21c-1.12 1.94-1.44 2.7-2.34 4.42a21.4 21.4 0 0 0 -2.05 8.75c0 5.19 2.55 9.86 4.39 13.07z"/><path d="m53.66 224.47a14.53 14.53 0 0 1 -5.22-1v1h-3.31v-6.76h3.31v2.52a14.67 14.67 0 0 0 5 .9c1.9 0 4.17-.62 4.17-1.84a1 1 0 0 0 -.5-1c-1.12-.61-2.7-.43-4-.54-2.52-.22-7.56-.58-7.56-4.93 0-3.57 3.6-4.93 6.74-4.93a13.13 13.13 0 0 1 4.53.82v-.82h3.31v6.26h-3.27v-2a10.29 10.29 0 0 0 -4.25-.9c-.79 0-3.85.18-3.85 1.66s2.41 1.55 3.28 1.62l4.5.36a4.39 4.39 0 0 1 4.32 4.39c0 3.18-3.21 5.19-7.2 5.19z"/><path d="m74.14 224v-3.35h2.74v-7.05a2.09 2.09 0 0 0 -2.31-2.38 9.4 9.4 0 0 0 -5.29 2.09v7.34h2.72v3.35h-8.8v-3.35h2.8v-15.65h-2.8v-3.35h6.08v7.95a10.56 10.56 0 0 1 5.33-1.6c3.63 0 4.75 2.2 5 2.67a7.78 7.78 0 0 1 .61 3.27v6.8h2.78v3.26z"/><path d="m92.86 224.47c-5.9 0-8.93-3.92-8.93-8.17 0-5.54 4.72-8.35 8.86-8.35 4.53 0 8.31 3 8.31 7.38 0 .76-.07 2-.1 2.38h-13.72c.18 1.22 1.33 3.45 5.58 3.45a16.39 16.39 0 0 0 7.34-2l1.52 2.74a18 18 0 0 1 -8.86 2.57zm4.86-10.65c-.94-2-3.1-2.52-5.11-2.52s-4.36 1-5.08 3.06h10.33z"/><path d="m104.67 224v-3.35h5.94v-15.65h-5.69v-3.35h9v19h6v3.35z"/><path d="m124.47 224v-3.35h5.94v-15.65h-5.69v-3.35h9v19h6v3.35z"/><path d="m177.57 224v-11.33a1.46 1.46 0 0 0 -1.51-1.37 3.18 3.18 0 0 0 -2.45 1.48v7.91h2.16v3.31h-5.47v-10.9a1.63 1.63 0 0 0 -1.62-1.84 3.67 3.67 0 0 0 -2.34 1.19v8.2h2.8v3.35h-8.89v-3.35h2.75v-8.92h-2.77v-3.35h6.09v.79a3.69 3.69 0 0 1 2.88-1.26 3.52 3.52 0 0 1 3.09 1.73 5.23 5.23 0 0 1 3.91-1.64 4.59 4.59 0 0 1 4.68 4.86v7.88h2.05v3.26z"/><path d="m194.88 224v-1.69c-.54.32-1.62 1-1.62 1a9.38 9.38 0 0 1 -4.39 1.11c-4 0-6.19-2.84-6.19-5.18 0-.68.32-5.62 8.32-5.62a33.12 33.12 0 0 1 3.88.26v-.43c0-2.16-2.66-2.24-3.52-2.24a16.92 16.92 0 0 0 -6.2 1.41l-1.29-2.88a20.34 20.34 0 0 1 7.63-1.87c.72 0 4.75 0 6.08 2.88a9.43 9.43 0 0 1 .54 3.92v6h2.77v3.33zm0-6.77c-1-.07-2.37-.28-4.39-.28-1.83 0-4.5.57-4.5 2.34 0 1.15 1.41 1.8 2.85 1.8a9 9 0 0 0 6-2.78z"/><path d="m217.71 212.52c-.11-.9-.26-1.26-1.16-1.26a5.27 5.27 0 0 0 -2.37.8 26.45 26.45 0 0 0 -4.07 2.91v5.72h6.55v3.31h-13.75v-3.35h3.85v-8.92h-3.88v-3.35h7.23v2.52c1.8-1.44 4-3 6.44-3s3.57 1.33 3.89 2.23a5.18 5.18 0 0 1 .43 1.87z"/><path d="m232.39 224v-3.35h.94a35.18 35.18 0 0 0 -4.14-3.88l-1.19.82v6.41h-6v-3.35h2.7v-15.65h-2.7v-3.35h6v12.24l3.17-2.2h-.68v-3.35h9.21v3.35h-3.63l-4.47 3.31a50 50 0 0 1 5.8 5.65h3.6v3.35z"/><path d="m254.53 224v-1.11a8.48 8.48 0 0 1 -4.75 1.54c-2.27 0-5-1-5.83-3.34a8.34 8.34 0 0 1 -.36-2.78v-6.58h-2.81v-3.35h6.09v10c0 .83.1 2.77 3 2.77a6.48 6.48 0 0 0 4.68-2.2v-7.23h-2.75v-3.35h6.05v12.27h2.77v3.36z"/><path d="m271.71 224.47a8.9 8.9 0 0 1 -5.37-1.8v4.61h5.11v3.35h-11.16v-3.35h2.71v-15.48h-2.81v-3.34h6.12v1.26a8.2 8.2 0 0 1 5.22-1.77c3.49 0 8.32 2.49 8.32 8.14a8.12 8.12 0 0 1 -8.14 8.38zm-.18-13.17c-1.44 0-5.33.72-5.33 4.86s3.71 5 5.29 5a5 5 0 0 0 5.07-5 4.74 4.74 0 0 0 -5.03-4.86z"/><path d="m302.67 224v-3.35h5.94v-15.65h-5.69v-3.35h9v19h6v3.35z"/><path d="m333.48 224v-1.69c-.54.32-1.62 1-1.62 1a9.45 9.45 0 0 1 -4.39 1.11c-4 0-6.19-2.84-6.19-5.18 0-.68.32-5.62 8.31-5.62a33.29 33.29 0 0 1 3.89.26v-.43c0-2.16-2.66-2.24-3.53-2.24a16.91 16.91 0 0 0 -6.19 1.41l-1.29-2.88a20.34 20.34 0 0 1 7.63-1.87c.72 0 4.75 0 6.08 2.88a9.43 9.43 0 0 1 .54 3.92v6h2.77v3.33zm0-6.77c-1-.07-2.38-.28-4.39-.28-1.84 0-4.5.57-4.5 2.34 0 1.15 1.4 1.8 2.84 1.8a9 9 0 0 0 6.05-2.78z"/><path d="m351 224v-3.35h2.73v-6.91c0-1.4-.21-2.52-2.63-2.52a8.53 8.53 0 0 0 -5.11 2v7.45h2.81v3.33h-8.89v-3.35h2.77v-8.92h-2.84v-3.35h6.16v1.15a10.29 10.29 0 0 1 5.44-1.62 5.5 5.5 0 0 1 4.71 2 6 6 0 0 1 .85 3.09v7.66h2.7v3.34z"/><path d="m376.82 211.73v11.52c0 3.89-.75 7.42-7.41 7.42a36.94 36.94 0 0 1 -8.21-1.26l.8-3.41a29.85 29.85 0 0 0 7.31 1.26c4.14 0 4.25-1.69 4.25-3.81v-1.41a8.16 8.16 0 0 1 -5 1.59c-5.07 0-8.6-3.39-8.6-7.81s3.56-7.89 8.71-7.89a7.73 7.73 0 0 1 4.9 1.55v-1.12h6v3.35zm-8.31-.43c-2.81 0-5.18 1.84-5.18 4.46s2.55 4.54 5.14 4.54c3.06 0 5.08-1.69 5.08-4.43s-2.13-4.57-5.04-4.57z"/><path d="m393.13 224v-1.11a8.48 8.48 0 0 1 -4.75 1.54c-2.27 0-5-1-5.83-3.34a8.09 8.09 0 0 1 -.36-2.78v-6.58h-2.81v-3.35h6.08v10c0 .83.11 2.77 3 2.77a6.5 6.5 0 0 0 4.68-2.2v-7.23h-2.74v-3.35h6v12.27h2.77v3.36z"/><path d="m412.68 224v-1.69c-.54.32-1.62 1-1.62 1a9.45 9.45 0 0 1 -4.39 1.11c-4 0-6.19-2.84-6.19-5.18 0-.68.32-5.62 8.31-5.62a33.29 33.29 0 0 1 3.89.26v-.43c0-2.16-2.66-2.24-3.53-2.24a16.91 16.91 0 0 0 -6.19 1.41l-1.3-2.88a20.44 20.44 0 0 1 7.64-1.87c.72 0 4.75 0 6.08 2.88a9.43 9.43 0 0 1 .54 3.92v6h2.77v3.33zm0-6.77c-1.05-.07-2.38-.28-4.39-.28-1.84 0-4.5.57-4.5 2.34 0 1.15 1.4 1.8 2.84 1.8a9 9 0 0 0 6.05-2.78z"/><path d="m436.22 211.73v11.52c0 3.89-.75 7.42-7.41 7.42a36.94 36.94 0 0 1 -8.21-1.26l.79-3.39a29.85 29.85 0 0 0 7.31 1.26c4.14 0 4.25-1.69 4.25-3.81v-1.41a8.16 8.16 0 0 1 -5 1.59c-5.07 0-8.6-3.39-8.6-7.81s3.56-7.89 8.71-7.89a7.75 7.75 0 0 1 4.9 1.55v-1.12h6v3.35zm-8.31-.43c-2.81 0-5.19 1.84-5.19 4.46s2.56 4.54 5.15 4.54c3.06 0 5.08-1.69 5.08-4.43s-2.13-4.57-5.04-4.57z"/><path d="m449.25 224.47c-5.9 0-8.92-3.92-8.92-8.17 0-5.54 4.71-8.35 8.85-8.35 4.54 0 8.32 3 8.32 7.38 0 .76-.07 2-.11 2.38h-13.71c.18 1.22 1.33 3.45 5.57 3.45a16.47 16.47 0 0 0 7.35-2l1.51 2.74a18 18 0 0 1 -8.86 2.57zm4.86-10.65c-.93-2-3.09-2.52-5.11-2.52s-4.35 1-5.07 3.06h10.33z"/><path d="m465.2 227.14h-3.2c1.12-1.95 1.44-2.7 2.34-4.43a21.52 21.52 0 0 0 2.05-8.75c0-5.18-2.55-9.86-4.39-13.06h3.35c3.88 5.86 4.6 10.9 4.6 13 .05 4.38-2.08 9.42-4.75 13.24z"/></svg>